<mxfile host="app.diagrams.net" modified="2024-06-13T22:35:39.526Z" agent="Mozilla/5.0 (Windows NT 10.0; Win64; x64) AppleWebKit/537.36 (KHTML, like Gecko) Chrome/125.0.0.0 Safari/537.36" etag="aq-ZVM2b4DM2CTHWXS46" version="24.5.4" type="device">
  <diagram name="Page-1" id="gwitRV9jFqSz_QylvDJV">
    <mxGraphModel dx="1964" dy="569" grid="1" gridSize="10" guides="1" tooltips="1" connect="1" arrows="1" fold="1" page="1" pageScale="1" pageWidth="850" pageHeight="1100" math="0" shadow="0">
      <root>
        <mxCell id="0" />
        <mxCell id="1" parent="0" />
        <mxCell id="K9GchK6eYrQeb1Zm0STE-1" value="" style="shape=image;verticalLabelPosition=bottom;labelBackgroundColor=default;verticalAlign=top;aspect=fixed;imageAspect=0;image=data:image/png,iVBORw0KGgoAAAANSUhEUgAAAlAAAAGvCAYAAAHjyduCAAAAAXNSR0IArs4c6QAAAARnQU1BAACxjwv8YQUAAAAJcEhZcwAAFxEAABcRAcom8z8AAKoCSURBVHhe7Z2HfxTXuf79b/xu7r3p9Trd6Y5zEztOL85Nc5rjFKfdON25SRynXt/03h0bAzam9yYQTUIghEQvAkQHISFAQkigAj6/8z3aI0azZ7WzuzO7U97n83lgNTO7OzvzznOe095zg9LoHRquOSeD6/hq84bf7dirjvcPVI2H+vrztnEOk8F/fJQ81n9JdTjOseoX6u76RnMii46cUG+Yv8Jsi9OF2nO+V32kboP67uY2db/mdzTZXvUL5WKcLlQhyoUKSLlQAWkuVBDYNwSBPfbSyGhuS2E0dnYXvVDtF/pyrwpj4ZHj5jsf2nMgt6Uw/rBznzl2weFjuS2F8b9bd5pjy75Q/zplljo/NGR+5JP67wu6CLWwx9b6Qi09ekL163M42HtR/bRlR25rSBfqRTMWqtEnn1RvXliX2zIG++P9OD0wmHt1HfZY74X6auMWNXT1qrmgI9eu5baWfqGu6nM7M3hZ/axtd27LGApF1BMHj+ReXYfrQnFety+qMxfmmv4Oi4oj6lnT5ppIGr56TW3vOW+KVQt7bK0j6t3L6tWLn1ioXjt3mXrq1Dm5rRVE1PkrQ2p6+2H1spmL1SP7DpkD/m3KbONIt3afM3/bHx8E9lgu1NuXrFY3z1uuZhw4rF46c5H5rmEdUVP3d5jvC3qh7m/epp6tb85NsxarF+uoP3v5iiIu23v71PuXry2qUatOnM69mnihjl68ZCJ81fHT+nW/enjvQfXLbXvMcZdHr+ZH1ODoqOq5csW8dsH+eNDcddY8At/XJ09UNZ3pVu9aWm+MGh9uj61VRM3Uj9vK46fU6/UN+nnbLuO2+X2ca8PpruqK+WSwx9b60SuEsi+U/WGWh3UI+rcV4juX1Du3u/iWRauc24tdKP/xW7p68rYV4q+373Fud/HTazY6t0PnhQrK/3h8gXN7qSz1QsEgF+srDVuc28vhpBdqssh68ROLnNvLYTkXCqI3ru0QvXRtL0RXi4GXRSOKUsW/7R26JPNvK8YjunRxbYflXihYf7IzbxuloH9bpQz06OGR7OtP1jdO2BcGK7lQsE4X7fb1u3Xp690XFgNr1M5zF4y7du0rxi+s3+zcblnphYL4JGoTrn3F+KYFK53bvSx6oVxYd+qM81gvC8F1bCUXyoUgN78QXMfCQBeKus9Ptu5Q/9Su9ZSu2wW9UE/RFeff6s//sa6Q3qnFFbiOrfRCcX4H+y6qu1Y3GFMZ9EJRr+3TtY+N2ss97dGxKo7rWBg4onDiEAS9UHw2DvmKrgxbuI6t9EIBzmz02tj5Bb1Qnbpyzbl5K8GuY2HRC/XIvoN5/GPO2U5G1/ug69hKLpTrO4JcKNf7oOtYGFjMy2FQB13JhaqEttoThGVdqPcuW+Pc7mXb2XPO7S6GfaE+obXKtd3LA70XndsLMdKICspqRhQtCa7txVjxhfJGzmSVyskY5YWiNLSvadPy7iuFoUQUJZtre1BGHVH/2HPAub0UVnShXJiy75Dz2MkYxYWikuvC2gDWxsWKL9QLtWmDVE5B3C7Uc6bPM+eH9wM1u1B+SERNwns3NDu3B2UUF8rLpcdOOreXwlAu1JflQgVjJi5U7lwqwv2bt+VexRNtZ8/nXpWPUC4U/XtxhlyogEjVhRrwdZbSRhSk4zMIEn2hrjeVBUc57wGJvFBESq4hsmyU+vbEXSiaOMJC9+XCA0r8EDEPiNhcKPFRASERFRByoQLi640tqrGza1JGhdUnTju/z8ttPTG5ULUEY0KrgapdqL2eUcNh4cQld+NhFKhqRHmHWIcBmj+qhcQ/etVCYi8UQ7ariZpcqDpdUjETtFzQj1htJCqianGBLGp+oWwvM/97K7r8vSE36nf3uQs1vUjgBv9s7Fpw1DPbyg8a9FzvqTZvsL0MteShvou5y5IP1/HVJtM8anah/tvTxRW3C0UT9LyOY+N/1/RCeSkRFZByoQIyERdq+bGTuVMqDA60byqG3++4PmI4CDiu2IUKglK/s5RjK75QTB4ihYgdfw7icqGY6P2+ZWvUXu3B3rtsrXrGtOtziv3HTgaOc14oxhU9e9q83F9jKHShvAPZLVwX6qOrNpg5xV3aUNKQ5gXHlXKhXvTEQvXVhi1mQqUX/u+cDP5judH0EL1s1mL19sWrzfQ2C46rKKKOXxr7gUyt907Pj0tE9eib8n+tO9X3Nrepl89crG5duDK3J//YycBx4xdqlw5PGsE+tqrBJFOYf/iYGTlHvDC5sVBEWXgjy3uhHtp7UH1wxTq1X/sSBr//fsdecyzDBW+eu9wcz3HFLtSsQ0fN8dPaO9R57ZI5t5l62ydXN5qMQfY4GATeY5kt/7zH5psRw9zwd+hIpdV0rvZRgOPKiqguHUEWJFQgou5r2qr2ne81F8EfUX3Dw5P2DHNckIgia4ed6+KC/c6TlwbVPWub1Gc0m7t61MXhEfWZNRvV4OhVk+bIeyxg9jqSUAgcV9aFKoY4PHoD+seTVqAQvMcWA8eZC2XfVEsWu1C1ZlUv1PJjhQftx+FC/XDLdud2KBEVkHKhArJqF+pX2ybPZlHrC4Ulcm23lIgKyKIXillJLriO9dMFvtB1bLkXiknTLriO9dOFR/e7p6cEvlBmNrc2jrby6zrWTwvyT1GNAFFdKKooTKQmkxpwHeunBb3XzWfOmtcVXyh7AhauY/0EJO368Mr1aoW2BiCqC0XiLi9cx/oJqA6RnsQa/rIv1J927R+fvf233e1FZ3J7aY/1foYr/S0s90L92fPZZBKzr13H+mmP9X6G6zhY9EL5+Rd9sVzbCzHo/N2wxJw6nmt7pSz5QgUleeNc2wuR4rkQXMdXyh09F5zbC7GiC4VAu7b/vG23c/tkDCuivKRJxrWd5hPX9slYcUQVS04VlFFcKEjaS9f2Uhnao3dn3Xrn9qCM6kJZvmVReemSLCu6UIXgOrYYo7hQheA6thgrvlAkNW3SXubxA4dN8y5wHVuMUV2o5z82X92mo2lI+yxy8gHXscUoERWQoWlUpYxaoyqlXKiAjM2FcqX6tnAdX22aC5U7H0ERyIUKCLlQAVHTC+Wdy+IdvwC8LWDoRK0hERUQVb9Q5yqYNkYld7Ku8ighERUQib1Q1Z7JULULxXCcMGFTsVUL8ugFRFUu1LGIinfvMlBRI5QLxQDWyVhKepBS4fo+P8NAVSKKMZxRYEcI0/SDItEaVc2SL7EXKrX2IGyk+kJVmmDLi9RHFPOD/S0FQcHF2drdM2nTcVSo2aPHBSsFrnk31URNNYrBHKT0J3M10cIaDcBGHNswlfw/2ayFauCGn7XtMilos84HW3eW/Ui7Pi+LNJ0wvPD3zqSJzLu0w6Fumb9CbTpz1qx4+Yypc822L+aW1eI6lBtQ9rvSSIa4cv1Yhe+1c5ap3fpv1p593dzlZj8DFd+aW18yEwEVlBJQlVMCykMJqMopAeWhBFTlHA+oRUdOqMfaD1dMPtD/Ja7jSiUVB//nMrHcdWypZNFtPq/SgHpo7wHn55dK/yp2TOp3HVcq7ULfllHc8/GACjJHPQhcAeXHvzwyywyP9eZi/VT9xvHhGN7EJRbeOe+WQVZoD4KwAiqsBQ/8AeVaFZ5VVWd3HFV3LFuT26LUiOe6PXPa3Nyr6/AHVJAV5IOg5IBi7PHXGlsmTUBnETSgWBCYTA9zDh1Vz9WfT02M6VfLjp50LjZVSkAxDX62/lwwWcYHi6gDigeEa3ik/5L6SkNzbmthBAmoL21oNjUrsvN8dm2TydBDO9QrZi1RL56xcEKmHosgAfWvOlCBnZT0qtlLzf+ToeSAspMZ+Z/8Ki/JDWh3IUhAPWvavJKTIAcNKNu/N+PAETOZiQ5XJmXyC0iH4kI1AgqQkoXsRFS5f7x1h9nmQpCAIjHPu5dNzHJUDEEV6o3zV5hpg/+p/3/ZzMXqdXOWqQe2bNfXc1veUjSg5IAioY4fNgGOH8ECaq7JpPQVfXE7By6b3DLcbBsMpJjyo9Qiz9UxU6gfoxpFXu9w/tCIQnofJKDO5QKKDE8f0g85SvLK2UtMvh6QbxpKK/K+37w9r2sCv3RBlyp+FAwomvfvWt2opus3vkXLKZmUWBuWadOAqdM3aUnF/zDthieP/a3dY2vJgiABZcHqDHdr7+QFwfu5dZtyf11HoYAiY9RtC+tMkfLb7XtNbjKKUm7KT/W50BjH4gY8Wcw0Zp1unkASzfFbQJgBxaJ5H1/doP7j8QXqAf37aEBlECVTu/nu9+ub/yl9zX7SskN9c+NW04XyRl388zs+mlthPkhAWZDsyY8ro9dKCigmFTPVnHPlnr9CByb3hoR3ZBHj/Ajcm2YtNgHF/Vmh48Uqb8GACgOFAuo9uqz/v9Zd6r+WrzUn8j79PydNdi78FP1UH65br/66u129a2m9+XF22AvZr7Juykm0d6cOOG7+rfp6YTumtneMZw+jGOXG36j90y362qF+LEl+f3ObPmYskUNVTflSbYZ7dK2rUlKV9540dB1XKn+rz9H/uZTzrmNLpc2/UGlA0b3v+vxSycId3t/JQ+Y6rlQu0ffY+7kElOu4UkmuCPuZ4wHl/aLJWGoKg2J8zZylzu1hMGg+CstKAyoIW7SiuLaXy8kSp9WCJQeUZak3y088hmt7WKTZwLV9MlYjoCxZc8S1PSjxYa7tYbFc4Sg7oCyL5Tjzk/LdtT1M4tNc24uxmgFlyXQL1/ZC/IA29a7tYfJ2XclxbQ/CigPKcp82pK7tlh/SNUTX9rCJeXVtD8JaBJQlS925tlvSIu7aHjbp5nFtD8rQAsqSpNXevz+vq5jev+PMWgaUZd3xiYH1jsWrJ/wdd1YcUHipGQeP5JGaiWu76zNK5ROOz4W0pfi3zdR0fYaLtQgoupn85wx/3LLDud31GaXS9bmF6A/wYqw4oAplL3WhVL9QiKWAH+j6DBdrEVCFsqu6UMl98rIUFMqtWYihBtTQ1Wum5fdH+umige2few+aPieLsAOKVn06gmmjYjbpJ+sb1avnLDUNqBZJCqgrV6+aDl78KB3md61umHD9wg6o5jM96k3agPfp7+R3cx3vWLZ2wvrNNQ2oYhCFyqcoVAmkz8e1PWzeE9L31CKgJuPf9pSWWLhcuno3ymWkAeUlvf+u7eWSfirX9koYt4CyPHLxkimGXPvKJZ3mru2VsmoBZUmzQrmt7N/Z5E7WHBbjGlBeltMDYMlAPNf2MFn1gPIySD8U454r7eYJyiQElJdBctn/ushqMmGzpgHlJeOE7Gtuaql56sNg0gLKS29wUQqE3YkflDULKLoagpJBd67PCJtJCSgaQ13XqRDXhlS7DsKaBZQFveaM+2PFIcDgMoay8r+FBNREeidx0GZF0Hxs9dhoT5LYc/1QKItMBRSjMwkohnMAVh3wj/2WgJpIb0Dt1NZgifaZb160yvxNQPmH/2YqoILgMR1krs8Im0kMqCBYX8EIjFJZs4By8d4Nzc7t1WJSAqoQlx6bOMS3FpSA8lACqnKagGKN+FMDgzUn8/Rc26tFBtyXC9fnVZsrj592bq8mQWzSkTKtSlA+vKMEagkJqJRAAsqHWgYU065duU7ZhiUATCcfvuqeQO54a9UhAeVDNQOqUGB4wRRyF3YGSF/MYLlqQwLKh2oFVLXW9Ki2aklA+RBFQPnXwhwYDScfQlAwlsmLKNdzkYDy4f7N2THl/kALAxJQPmQpoFz5qyqFBJQPYRV5URYrYYKBg2FCAsqHMAIqiqIkSqw/Fd5SkhJQPoQRUP3DI7lXyUElSwx7IQEVAbwDy5IA2sPI3pcmpCqgkoYozHmtkcqAYmhsnEGKboKp1osARoHUKlScb1YalckitQFV6lDZakICKqEghXX9iU6Tepn5atW+kXwfy7qilpwDf6c5mEDmTHm1CkKS7ac9eFzIXEBZkF6oUHD1j4ypiQusU7NGq04hsGAR77VDYrOGzAaUFwxp2Xb2/PjqDV4QPLaogn5vRlcPidZgWKs7JBk39A0Pq159QYXlj5NyfVYWyTIqZhqVcGyJ+HLQ0t3j/Lys8Rdtu9W8w8fUDa75VWnj4Ytj67m4yKI//F9uQG3pOpv3mWkiRbxruyU2gf8XHTmejYAiEcc3Nraob23cqr7d1KpunrdcNXV2m8V+2M8Ko/wvAeUmy/eSXokx9i+fuVi9ZfEqNevgEfXRVQ3jxxB0mQkofiyre5IGkGU7aI/yrrggATU5ba7Ul89abNRo1qGjZsHHIznVf3Dr2ALjmQmooJSAqowSUD5KQFVGCSgfJaAqowSUjxJQlVECykcJqMooAeWjBFRlnBBQrMlfKf+2O38pCVpQXceWyof3Hcz7bNdxpZIgsp9XSUCxeJHr80vlg635a9O4jiuVv96en6/cdVypfETfF347nzchoMIASSS8JwxZ2y4MuAIqDHhvYGUBFc7kCFbS8v5GGAamt+ev5xLGMB4y09Q8oJ4yZZbpCpmmf6SF94Z8d3Nb7tV1SEBdB0tscA29eO3cZQWzxYBUBxRg6VgCit5pbsZXG7ao2xbWmbl5ElCT/8571jWZ/1ka7T3L1qh/7j1gAmrDqTNm8sMFxzy/2AQUq3A//7H56pZ5K3R5eSi31Y2gAfW1xhb1s7ZdJqC+tH6zuRm/3LbbLL3Pwo3lBtTTps4x/7NcF1h27KT5fzJUI6Ce9ugccw1J5k8e8ckQNKA+sbrBvF569KT5bALqzroNJnErnd1+lBJQD2zZrlq7e8zrYkFXckB9UAfUi55YaLLzE1AMRBsucFHK8VAkug+CIAHF04nikXz19kV16udtu9WH69abPqgVx06Zldn9qFZAcQ3ndhwz07smy09VqodirPrJS8VHhgYNqF9v36se12ab3wSY2s/5Pk8HLSth+VFyQNmbYAOK2kIhBA0oVk24PZf5PyiCFnkv0CpHQPHjXzZzsXqdfnJ5KN6si9N5+ob6UY2AolMaEFAoFEFTCEEC6k8795nO7lKKrKAB9VBuhdaWrh71C11qcAznhGpxbf2IhYeipx8F4aKwBt7f9Y94xtS56o/6QrFm8ILD19d5sRAPdR1/3rXfeE7KCdYL5qajIvzN6xGtWn7ExkMxrPNti1fn/hoDxcof9M33I2hAbTABtcqY8IU6eF6jg+jfH52t2nv7CuYKLyWgXvLEIvNDvWBtPgLXj2oE1LebtpohH17w0PC7/SgloL68odkEEeB9Nq/ns6fNM/97UUpAMfXsB/p6+UGbkx+TBhTl+931jWa2xk9zF5eAeqkuOljhfMaBI2YMzNnLV8z+h/Q29lGEzdFyzkI23hOGxTyUH42dXblXE1EooPhBXACAsT+j/36xDqjOXEDN1N9/n76hFHm2uD7oSU4RdkCRKZhzAAwN5tz4fhZAAlwrfiO13H+fMtsExK/0efELYJCAKgeFAooKzCt1YG/U5/T95u1GLDafOWsCdubBo8YmmGt87Un1Bx3IPATvW75WLT5yQv20ZcfkAfXupfXGd7xxwQpjvL+oa2A2oN4wf4X5kM+sbVJD+kl4QFfvKbYe1kHFDZqujVypppyTD4pCAcVTenn0qvpv/T8BdbP2TAQUN5VzZfm0dyxZbbwgAcVS/DYAQdgBdW9Ds1p9olN9Zk2TCag7dLXeBNT+Q+Z8+B0f1Z4Kr0JAvW3xqvG8n6UGFPlD7/RVNHbre/AVfS38KBRQN+kKC/74LbrEOKG3cZ2496xq8aaFK7U9OZO7xqOm14Pf8NFVG8xUMpp4Jg0oi+uXuzQUCihS7NBEQLAyDJcTxCsRULcuWGmeCFTxC/qpBVx8guT5jy0wowVBkCKPuXSlIsoir1BteDIUCqjOgctmBvKgvi7Hc99FQFHp4KYSvFxH1s77wMp16h97D6hXzVlijmGUZbEir9w8EIECqlwUCqi646dNVFP1pJX3pTMXmVoYAdV29pxp47pVPw20Q71d+zW8wG36b6r7X23cYj67FA9VCpJiyt+5pN7UtCi6CVOW1LUBxcO5ree8UZc953tN2yGrxtMkMzhyVe3X22JjyktBsSLPKkg5SeGzHlCVouoBRe2qUtIV4D1hSFHnOrZUYmb9n+06rlSGGVCuzy+VroByHVcqpzgeSNdxpdJOoYITAioIMbeu7ZWSm+HaXm1WElCuz/OTSoNreyXcoYs61/ZasOSAgtQEXdvLZVTBRLOGa/tkjDqgIO13ru3lkHY71/Yw+DHteV3bJ2NZAQWZ2+baHieWE6jVCCj49z35AxFL5WQzocOg9UWlsOyAgh/3zBotlTQjuLaHRRpoXduLsVoBBf+xN9/TBGWxqeGVcn7HMef2YqwooOCn12x0bp+MUQcTpGrt2l6M1QwoSFuRa/tkjDqYIF0sru3FWHFAQTtNOQgphuJiwF2sdkDBvzrG4RdiNYKpEoYSUJAuGtd2Lwmko1UIJvocXduDsBYBBf+0a79zu5dReybLz6wtvdSxDC2g4BcmCSqCiYFarn1hk1UJXNuDsFYBBX8/Se2vWtcOHq0gcEMNKEi3imv7oSpJdaUXvpYBBX+3Iz+o8JzVsgmkfnRtD8rQAwrSm+/9O8q2Ej/pI3RtD8paBxSkR9++Njahiur0k607nNuDMpKAggx55X86Kv374sw4BBS0jZ/V8k1hMZSAmtNxVM04eCSPf9m9P28bIwxcn1Eq/Z8LHztw2Lnd9f5CrEVAuc4ZMvDNv41RG67PKIXYAv/nwp/o3+7a7vqMQgwloEoBg95dn1EKV504nfu04mCKkeszCrEWAVUKGCfm+oxSyHChoCilSQNKQPkoATURNQ0oBs/ZobWM/qO1mvFPDCW1CDugGD7B4DIGmTFSkXFWJGKlIgCSFFCM5GDA4aYzZ831+4u+mWag4YKVuSPCDaip+rPAUx6ZZSZ1MGzmhy3bVbP+LXacVM0DijHmwI4VZ9zx8NXrw2DDDihGdDIZgQtwz9omcwPuWLZ2bKdGkgKKkaov1TeWgGJlBn7Taf3bvOPfww4oZs+QHZkJsowiIaCYgGBR04Dyj592jacOO6BGrz1phsNe1oHEkNgR33cuOXrC+RmFWMuAsudux3a7rl+YAcXi2dO08YfMPGac/wzfLG7xUD6Ih8pn7D0UPdN+0p/m2r43hHapR/VFdX22i6UOZqtFQLnOmxvp2h5GX6jrs5kK598Gf+tpZA3CUAKqEEkuX43O4Eq7C7ysRUAVIh7HtT1s/nV38Y7poIw0oCz/EuIJ+/mukIcjxymgLJcfO+XcHgaDjBIphVUJKDjZSIRySNHpnW0RFuMYUDDsIdebHDOIwmDVAgoyOIwFDl37SmGhEQ1hMK4BBZnzGMYAu3ctCVfVvaxqQFkyN961vRjpeSfxhWtfWIxzQFmST8C1vRjpwyMHp2tfWKxJQEE6cl3bC5FWY9f2sJmEgIKlBtU3Gluc28NmzQLKMoji0JLr2h4FkxJQkHFSrWfPOfd5GWR4cViseUDBu3wD8izxW9UeD5SkgLKkh8C1nQUSqzXS0zIWAQWZTu0dmfj2iKa8F2MSAwr6x0nRr+n9u1qMTUBZ3rW6MbIqbRAmNaAsSahWy1GyNQsoRiMy3CQISQ3t+owomJSAoj/Tda1c9GaXiZo1CyjS/gRFqf1JlTApATVy7fqQlmJwpQeKirEJKDOp4RIXaiy3IwskW0hA5dMGFDmzAMly2UK2YRL9e7MLZy6gXjhjoUmHSFJ1luVgyYnlniU1JKDyaQOKtV24fq3d58z/T310jr6Wdepve9rNfpBJhWK4MOmqUSi7homFBFQ+bUCxgABo0wHFls+uazIB5UUmA2oyJCGgGIft+ryoKB7KRzHllVECKiFMSkDFlRJQPkpAVUYJKB8loCqjBJSPElCVUQLKRwmoyjgeUCzcIyy+zGohMGPZ9XlZ48lLY/MMbzD/CgQhQQJKECokoAShQgJKECokoAShIvMBRc9YoSVSSWBG/iT2swSrC8F71rKBzAYUVV0XGF8EWITID1aEB+RUcoH2mKwjkwHV7giWoPAnNvOD6V9ZRuYCqpJgCgqmfmcVmQqoQl4pCmS1+Et9QF0cHhlfkd1mCK4GbNFH4tUhT/LatCO1AXXuylDu1XWQEqdaOO0w/WcGL+depRepDKgSRslWHTRDpBmpDCiSbcQV1agU1BKpDCjSJsYVDHepZuWg2khlQJHNJa5o6uyesEJC2pDKgHIZ8rjgwtBw7lU6kbqASkIVXYq8hIDEpEnBhtxU8rQhlUWeoHaQgKohSAqWNqQmoOLcmFkIK4+fyr1KD2ITUI2dXRXRprdJEggo128ph3GBFHk1hCiUIFRIQMUcpFVOCi6NjIopF4SHNKoTSF1AsVJ63IEySUAlCHGeKMBIiLQGE0hlQPXGvANW+vIShjiPNgBJbDMLCjHlVQbjykvJhJw0pDag4tqEgH9Kb4GXcoXi5h3ovajODw3VpGbF9zE/jwBibRb+Jl9CmpH6Io/htiwJxkKP1QQ+ju9k6jqLJNalsBHThcx5KJZOrQZQo2J5ENKITJrygdHR3KtoQPGKKmURmQwosPvchdyrfBAQOwvsR3kGJwlI9sOsIrMBBbjxtAmR74laoQ2G+pOdZj9z6LxYd+qM2c92/icJGbNYui9fGX8vx2QZmQ4oi/0X+sxs4x5fg6gNHC/9QMkIrDhPLq0mbiAzCasICIVeHuy9mAuR6MHwbRYsd52HMLs0K3P8roprHArjT+KB4DjUVz2BkuVyhF6ybJAIVEp4d32jFpN+8/p7m9vy9vv57qX1E/5mxeT/98jM8b9FoISlkLaRz63bNP73R+o2TNjv5y+27TZL1tu/b1tYp36jY+4/Hl+gjuW2iUCliAjUz9p2mdW+37d8rcn5+Ok1G80+gmXq/g71wRXr1KYzZ9XR/kvqDfNX5H3Gvzwya/y1CJSwFCJQb1yw0sQfJOZeOGOhiUNGZXxXF5rPmDpHPbLvkDn2/uZtEwQK/mXXfvWtpq3jf4tApYif0mJEMPD6+/rm8/+DrbvUM6fNNUvsk43mWdPmqRc/scgkYXvd3GVq6dGTEz5DBEpYLmnM/4LHQX101QYzn+N5j81Xz9euqEO/fueSevV0LVKzDh014vPyWYuNWyKX/1N07P37o7MNaffkM0SghAUpAiWsNUWghAUpAiWsNUWghAUpAiWsNUWghAUpAiWsNUWghAUpAiWsNZ0CxbRHNsw4cCQWfOLgkbwT95PxPxznen8tuOL42ITzybilq8f53lqRXj7v+dVaoHaf63WeZ63Y2Nk94fr4Sc8ovVOu99aCCw4fd56nl4uPnnC+t1a0458snQK1/NjJXLjUHsxH4gS9J+0i4hQX/H7HPvXwvoPO8/SSDK1xwYOtO/MewFoKFIVknFalZJjGQv2weK+Pnw/tOZA7uvaY3t6h/rBzn/M8LRfohz4uKX+6Bi+bWEueQPWIQFUDIlCTQwQqWiRXoEJ0UP86ZZb5n9yor5i1xMwoJ1UT//+oZYe+GCdMXtf52hq/dfEqNVvbdUTkh1u2qz/v2m/ex2jYYhCBKh9pF6h71jWpoVxqjHvWNqlh/ZrYHb52Tf1YxyBVLlJiTNl3SP28bZf6+sYWkxSIGERwwDOmzTH/TwYRqCohCoEC71iy2iREnKZv5I0zFppt5FvhwWDKyFcbtpib94EV69QPdHAQTKRVFYGKFlkSqF+07TYF4vuWrVH/oWOQeNumC8y953rVa+cuM6OpN5w6o+6qbzDTQr64frPqHBgUgSpHoD64cp0a9WRtJ+D5m3k3PNh3129Um86UnjM5TIHi7Cy9uK+pVV0cHlHf3LhV9ejSy8Kuee9PBlUMYQoUU1Fsrum3LFqlBvR7yBFEqfpZLZr/s6nVlLgsVIywnrg0YI5lTh77g67cnQaB4n4x/8uCe0omXAqbIe1QHt570EwHulzi/QRhCVShGGRy93ktVt/fvM0kJbP77TPljUH/e10IU6D+a/ladf7KkDn2dXOXm4KdKSwbTp8x1/Om2UvMPlyfvb7k/PyMfv23Pe3mM4qh6gL1Sn3S/M2D+rKZi032NrK/jZaYrFQayZWZ04TTIyhIfDbjwGHt+haYfWv1daUA+Py6TeYar9HX+PcEZk6obpm33PxfDGkUKK7L3I5jRqD4/29aQLhGCHypyHob1H/OX6Fu1wUk7o97s1mbjS9taDb73rywTi3TmvHXXfvN9WUyOnM++WyEdc6ho+a4yVD1Kp7/h5ebRTlMgXrWtLlmQiOO4/ZFdWbi4m+27zGpMJl9/RUdyFP2HzJpH0hfzgRGHOCHV65XZ3POihKiGKKo4rkCyX9NvX/TXmYdYBBkoYrH1Sg3DsMSKNoyz125Yq7tu5fVq3ctrVf/p90uoJ3pPbq6RzWPh56/OWcS+JGdwrZBfWpNkzMevKhWFW/Us0C8//p69xWDtEFpIFC0M+EuKA3A9PbDZvwPY0aoEtw0a7HadvacOZbt9iF51eylpgoVBNIGVT7S3gaFQNGMgKtDoMA87e5O6pj80Ip15u+X6xrHau2E37RgpSloPrO2yWx/XDvn7zVvM9X8YshMG9Qn9UNJugTaNmgP4e/X56oNJKdiH4PTaOzDbbw/d5G/s6lNPV/vIwv8r7RL4ThsIG0jpPv4R+5m0nNBgirWbt13oVd9u6lVvUTvt8sZRFnFc90ctvm340Qe00IWdGWfUgWKAZtcn681tpi//1tbZ/4mlzVVO9rvSI0CuHbrtY3G0ZHTiePobaTd4gX6OpKEDjz10TnGWj+094CpFnIvKIkB1SA6BvhNFnEWqL7hYfPbqGZwb+io4Hfv7+0zjph7TwxRdt/XtFVdHBlRczqOqtMDg+Z3/0NfA/AGHbek/RgcvWq2f2PjVvXaOUtNs8MLdZWZZgrwidUNevsyE98WUVXxCgmEaztVfJK8BUGpAkX7HNeUdqRl+jn/H/38vuiJsYZ7XN2tWiw/tqrBCCYN9j/TscTr7+h7QUz26eefe8dn0PP4gHZ/xBj3hvtH+zP7WDWC11S3uQe2ba0sgUIcPq5PCvF5++LVxm0gONRD79UPEdsApYEVqJdq9W/s7DLLdQHqpHTp0x7AQ8ODxUX4qf5Su8IAQPS2dp8zPRcE56O6qgWy0AZFvqZd+neSXA6LbIWKnsZf6oDs184Od4eoEww8KAi6bV+izv9G/fByrf+2u90IKlUEuq5/rQsHkoaBNu0MGVbB5wIKAos4C9TbtNtl6AcP3V5diHGdAAHeogsNquL2bwSKxmZiDJEB+/Tn3KfF6Jfb9qjLWpz+rq8jbXYI2r9Pma3eu3SNeRC5XlTzSeQH7tRVe30pDdLeBoUYndCFHPmZSGzYfXlssfev61hEWLgOp7Tgr9XODoHimT+gr6ttzyOunjN9vo7jsfvD8Amu9x9yjpGGdsB70REMD3H6XS2EIJQqnhUoCytQUaJUgSIAscg0InOuODoC91f6YqH4X1q/2Vxwqm8kdeMYLh62+dnT5xmHyHE8xAgHN4X/36OD+OO6ZGUf7VcIBQLDcQgw+ywqreJZgQIIFOIUNZJSxeOB8rYDegUqSpQiULiCV2tnhqvr1e6BnlaaDmhHAvSuEoPN2jnj8vj/bYtXmdiioLlJxxMFFcMPiL1Dvf3GxeCiGe7CNaDX77laENp1gU47Ku4PcRnRnwEqqeJN8wgUsAIVJTLTBsVNwWkgQASUdRlUJVFsBmQCHJsVKATHHoeDoypL2lFcIVUmSmVAgyZjV6z6M5iToABf1o7SVkulDap8pKEN6hFdXfrjzv3GuT124LARlZFrT5rr26HFhmYMcNvCleMChfjcr0WH2gmxRdUeN0cMUghSNSJWP6CFiCrsbF2FBbdoQeN9Y8NPutU+XeUFmWmDqjUqreKRI9mCG0+gRQ0RqPKRBoHyA4HyDsG5f/O23KvoIAJVJWShDSoOEIGaHGlvg6o1ShIoDqKHqBKyisNdqxud+0ql94QL0fW+Ukkv4odWrnfuK5Wuc/TT9b5SSMMxiyS49pVKf2DAWgoUdJ1nUNJxQEeMa185RDC918ZFjnG9NyiZDcC0Kte+cug6Rz9d7wtK2taOOLaXS9f5OQUqTLb39pmeQNe+uJB2pzvr1jv3xZU4S/+KLGGz1gIVBpkmhFC59sWFiCntUq59cSWzGch/5doXJiMXKEvWqGdEtmtfrYj7uLNu8sUF48pqXMs0CJRlHIWKcXU0hLv2xZk0/s88dNS5L2xWTaAs+XHvXbbGua9aRPkZrOjalwRW6/qlSaAsm7RQ8Ztc+6pFepi968cljYx4d22PglUXKMtaCVVSHZMlcwYZ9+PaFzbTKFCWjGZmVoNrX1RkNV3GQLn2JYWME3Rtj4o1EyjLaglV3KqX5ZAJzHQ+uPZFwTQLlCUjoRkM69oXFmmHZbqSa1+S+LPWXVUrHC1rLlCWtFFFIVQf1Ha0Go15UZOG/H/uLT50IUxmQaAsaaPCnbr2lUvaOEmV49qXNDI/jzhw7YuSsREoSxzCHcvWOveVQjJhMrnStS+JZOS7a3uUzJJAWTIW7E+79jv3BSUug/hz7UsqTY4xx/aoGTuBsuShYB6da99k/HDd+poofZRknp9re9TMokBZkpaHgZeufYXIOKh3Lal37ksyyQLh2l4NxlagLCmNGDzp2uclg0KpBrn2JZmMkK9VFTXLAmWJUDEvzrXPy9sX1jm3J53kQXcN4q0WYy9QXpKnx7+NSbo0Qvq3p4HN+mGtdqOklyJQ10kqG9fYn7QKE2TS/dEaN5MkSqAgNppEYg80bzM5lFzHpIX8Rtf2alEEKp/0pM7pOFbzsXxRk7a4nT0TV5quBWMhUDTA/XV3e+gkWRsZCF3fWW3SA+c6x0pJUjBuoOs7K2VWBIrf6bq2lfLB1l0mx73rO6vNqH4jQw9ILun6zjAYC4Gy6X/DBrY8LgJFyRsFmI8nAlUZ7bJeYYPrFxeBIptqFECkMilQrFFH0rhv6f/J2Q2Yt8Q2sgn2j4yYJZdog7q3odk0ZPoRd4Gi8duCdcdYXQaw3DsN/oB0GLRDcax3zT4LEajK6RIoUloTa8zYJ6sqw19If8s2Mg6QWO4vu/ab+CMuSSjnhxGoffEUKPKEk6veghgjoyeZPFv1sXbZsnP6GPbRtDLsWGMxswJFOlMmdxIg9CQAMguyjeEHLFNOtYkFA8jTQ5pU/2oXcRco0rwirKQpJuMnAwVJ+UouHx4KtpM+ljzjCBW/lRVAvBCBqpwugXrJzEUm1pia8md9/ck4gDhxPVj1d/f5XnXX6gaz3h73hJS+fhiBiqmDmqrPi1TXLBjBggmfX7fZLHzAepaLjp4w4kWO9h+2bDeiRbLHF81YmLeuZWYFijzIFlwY1J2AAcxpIt0uAuXNke5H3AWKoREIMA2urCGGQJGDmhzkCBODM61AFYIIVOV0CZRdWIKFPXhoEahDff1mGwkdaV9CoHiICyHuAtWh7ytLrj+knyNWuEGg3qQLSFZhPnVp0OThR6AmW2w3swIVBqQNqjJmWaDCQJwFKiyIQFUAEajKKAJVGbh+UT68pbC1OzqBYpkq13eGwVgIVKmkqscqq659SSZCwDxE1gd07a82syJQpZD5naww3aSrfK79SSZ5qkinQlXWtb8WTKRAWRIsrJFG6eDanxQSFCyI6NpXS4pATU5SBdFhEyRfeVxJxgUay3fEdNBzogXKS0aV03CelGD5zqZW0yvn2hcXikAFJwVMknKOscajfxWfODI1AuUlEzyrnfkvCBkOEXVytDApAlUeGftEz5hrXy3J8u8rjp9y7osrUylQXv551/6aOhUGmZIbKIlJ82ohUEyQdp1LEsk9Z0WjLd09zv3VILHPlC/XviQw9QJlSdXvnUvqTXera3+Y5LtYyjqJouSlOKjwSCy8npioQhMEIk+K4SS3jVlmRqC8JFheMydcAeGzXjZzsWl0dO1PIkWgouGOngvqtoV1oQoIU6NeOWtJKkTJy0wKlJfbzp43i3aWI1YEw1cbtphxNK79SacIVPRkmkyxJcoLkcLwzVroOlKU2trPzAuUl4/sO2jmJbn2eflHHVDVXsCgFrQCZScuVwNZEygvP62rZUyAd+2zZOLuPWubVENKC0U/RaAKEFfFDHX79+KjJ8xkUe8xaac4qNoQZ/7upfUTxib9sm23mhXzYSlRMHMCtVPf9N9u3xuYvzHc49znZ9zHNZVKEajwSXOAK3YKkcVFXdtdTGNTQ+YEKqp5V2QiiEvun7AoAhUuaTMauUbinPDxf627ilYPk0gRqJAgAhUORKDKgwhUSugSKMZHAUKHXpEmfcyRi2O5f0jWxcRkVpThNXjTgpXmfy9EoMJB1gRqgxYVMqiCJUdOqLbuc+q2RXUmFsFn1zWZ/Ey36rhkG3nRnjp19vh+CxGolDC4QI2l4/UK1MlLg6pr8LIJEj9EoMJBlgVqcRGB6tSx13MlP+0zQKDWiEAlny6B8mbl5DXpTb0ihEiRfncyiECFg6wJ1Kgn1uxrbzySURUMTJI5FoiDSgmlDSo4RaDCZdRtUGtimLKnUmZOoKiuMZ4kCH/etsu53UUWP6jGPKtqUgQqXBIfrtgpxIf3HXRud5HMqq7vTDozJ1ClkKWHXNuzQhGo2nLpsXSKTikUgZqErHnm2p4V1kKg0pRupRIymlwESgRqUopAiYOqJUWgRKAmpQiUCFStKA5qjHkCdVAHo3CMrGjs2p4V0jNZTXECCJTrXLJGllpfoB9O174scX7HMfXztt1mzYEbcjEiyOH7zdtyrwSC6qPt7PncKwEQgfLh/s0iUILaQQRqIkSgfBAHJaglRKAmQgTKBxEoQS0hAjURIlA+iEAJagkRqIkQgfJB2qBKh51YPXz1Wl5KEEFpEIGaCBEoH7LioBCSwxf7zZACUnr0j4wYkbk4PKJODwya7Ux0HdXi48elkVF1Sh8zGficM/pzXTh3ZUi1X+gz89T4rp7LV1S35olLA6arnfFAWRU6EaiJEIHyIc0Oiod+z/lek1qmVPQODat9F3pV7/BwSeKx4XSXEapyRIfz3F3m+SYVIlATIQLlQxoFipxDNhlfUoHIFcuPlAaIQE2ECJQPaROo/boqlSb/selMNLm94gIRqIkQgfIhTW1Q7b19uVfpQlQJCOMAEaiJEIHyISkOClfU0t2j+oaHx9MVU5W7MDSstnT1mMbtpFfrCqHr8hW18vgpM29r7/leU/Xj99KbeFbv4/dHlMQycohATYQIlA9xd1D0oNHjJigOBItewiRBBGoiRKB8iLNA0VCcnf6s8LD+1Jncq/hDBGoiRKB8iHMVjyECgtIxoF1n/cnO3F/xhgjURIhA+RBnB7W1uyf3SlAKGIhKm1USxlOJQE2ECJQPcXZQjM4utlafYCKQpLoTp41AJaF6LAI1ESJQPsRRoJgCYhdzFJQHGszp9Ys7RKAmQgTKhzgJFEMHktYLFXcwDxCxiitEoCZCBMqHuAgU4sSYJkH44Noywj6OEIGaCBEoH+LSSM6sfkF04PruPnch91d8IAI1ESJQPsRBoGjM7dFVEUF0wEXRcE4OqzhBBGoiRKB8iEMVj4dHRotHDwTq5KV4tfGJQE2ECJQPiAPjZWpJ5tQVSwgnqBwIlM2PFRfKTIGJEIGKKaq9eGbWYAdvMoRDEF+IQMUUZLAURAc7eDPOQw4EIlCxBqlDqHIKwkXd8TFxIlWLIN4QgYo5kKe4jtlJIhAmGMchBoJ8iEAlBDt6LpgZ+TLlpXTgQm2VDso1TA5EoBIEHqzBDCwcEAUQJpa2EiQLIlAJQtege505QXEgUEdTmgI5zRCBShBwT1I9KQ+2eidIFkSgEgaqKcPSNR4YLJ6wOtf+JFW85EEEKoGg0ZcG88nGSjFVhlV904rGzq5Jk/cxvonfb50Ty7wLkgcRqASDh7Cps3v8IfQT55BW8PtYH2+NFmr/7/ayo0+EKckQgUo5cA5pG+rZdGZMlI/3yzSVtEMEKgNgcc80TJ2h7c2OAm9IcfVVcB0iUBkBLor14VhbrxIwqp0pOEFBO9GhCqtZ9Fzahm5YyvcLkg0RqIwBodp85qxpZA8yk59Z/wibFQe4Vr836BxB63i295w3/9NuhKMrBoZU0BDu/V4RpuxBBCrDoJHdCsdkpCHalR+d6SOICO1c7Kcaeaz/0ngbkSUi5wULaVJF8x5TiJ0DMjg1yxCBElSMS1pwdmihw5XVaVFBoBAWErAJBJXgBkpRSj6h0DJIFSxMIGOu8xBmm8TFDf/Yc0D979adQuE4f7FttxGOaoEl3V3nIcw26Ry54Xc79iqhEP56+x4TGNUWqF/q73OdjzCbnCBQRy5eMgPehMLWs+dqIlBLj550no8wm3xQBCo9ZHEF1+tSSBoS/heBEpZKphK5Xgcl+uOPWxGoFPGWecvN/3Tv3zx37HUhrjh+yoxp8m770Mr1avmxsWkjIlDCUvmx1Q3jBdyXG7aYYSv+Y7x85ewl468bO7tN/H6qfqP67fa949tFoFLE181dZtIBExgIFP+/fNZis51R3x9csU69XgfBw/sOmuB488K68ffO6Tiq/rBznwiUsGwiUDvOnjcx+Ll1m0z8fX79ZhNzP9WxtPzYSfVaHYtvmL9CzT98TP3rlNlqQ66QZNDuUV2wtus4fc+yNeOfKQKVIr5oxkL12x17DRElgmSfvuEHei+qD65cp542dY760679ZoHKRUeOq3U+B7Xg8HERKGHZRKB+k4u/ty9erbbpGPrUmo1m3/t14fhFLVYfW9Wgmrt6zLb/eHzBhPejPzfqGD6o49VuE4FKESdU8fRrAmK3FqNd5y6oD+vq2+xDR7UwndDuaalaKAIlDJn+Kh4C9ZFVG8zfb9OCxTAmCsf3LV9rBvDe6BEoClIEi/12GxSBShG9AsVrSqLnTJ+nXqhLJSbp3l3fqJ45ba56eO9BI1z//ujsCe9frMWLKSW8FoESlkqvQH2tscXMKPhec5t6xtS5ZshAS3ePevqjc0yzA9W5Z+vYnHnwiDn+vzc06yrfLBOTt3qaHkSghE6KQAnjQBEooZMiUMI4UARK6KQIlDAOFIESOikCJYwDRaCETopACeNAESihkyJQwjhQBEropAiUMA4UgRI6KQIljANFoIROikAJ40ARKKGTIlDCOFAESuikCJQwDnQKFGkSZhw4Ehu26YfFf+J+rjpx2vneWjFIwrg5h44631sLkm7Fe25xEKi5Hcec51oreq+Pi6QMcb2vVtzrm3jrZ3tvn/N9tSKrAPnP0SlQzDp+rP1wLMjJ+Wfd+7nt7Hnne2tFzpnZ2a5ztSQlheu9tSB5oH61bc+E86u1QLHOnutca8Gp+zvMtfBeHxcf3X/I+f5akPPlHrrO0/Lve9qd760Ff9G2Wz2092DeOToFiqRRcQEnV0yguBFxAudcTKBYHCAuIJFY3ASKrApxwcDoqLkW3uvjIsfFBZxvMYFiBZ244CFtikSgqgTOWQSqPIhAhQPOVwSqCuDkRKCihQjU5BCBih40K2VaoFhl4imPzFJPmTJLfaRug9n28dUNZsVSL8idfGlkRP1c14n9uH1RXe7V5OCcRaDKQ9oFysbgS2cuUsPXrpmOElbO9aJfx9+6k2fU1P2HcluuY9bBI6pzYDD3V2FwvkkSqMw7qMMX+9UT+uaC1Sc61bT2DpPiFizTD+iPWrarxw8cNqlIN2m+YtYSdXF4xGT8e6B5mzpxaUAL1CpzfDFwziJQ5SHtAvWupfXm/54rV9Qt81aYxSwu64dv9YnT6gdbtqsZOgZHtHDt7Llgsk+2915Uc7WIEYNkoSRtswhUygVqSP/Yt2ix+YR2UNeefFJ9d3Ob+Z9c3XwfDuo9S9eoc1eGjPUcunrNJH0XgYoeWREo8ILHF4w7qHsbtphtFIzE31rtoJ732Hx1Qe+jl5UYfNviVSJQbEy7QPH6fl0iIVDYbLv91gUrzfdZgeoavGyWyJmirTZL4YhARY+sCNSoLhCfrwUId3T28pD6p344ATHoFaizl6+YFXoe2XfILBMmAqU3liNQT586x1xwOKzVfq0Wlefq15WCkwtLoN65pF6XVM2m5MJFIVC0Qb3oiYXqe9pFvXrO0vE2KI5Ze7JT3bW6UX1r41bjuKotUFu6etTvd+zL/aXMAgh312/M/TUGb4lcLtIiUDgNG4OsEHJXziE/2Lord0R5CFOgOK+vNW5RN85YoA73XTIChYN6sY7B7+tC8xWzrzuo50yfrx7XheeH69ab+GR9uVlVFqgHdLWTxTcAVc9X6fNjhRbbdksBv+JY5YVJ5AL1jY0tuVdKXdVBwaohlACAh/7eDc3mdang5MIQKMBF9TeKA8Ti0sjoeOM54DcAbgpBXui9LnDOYTkoAhYQJH/b3a5v4gHzN4MH71nbZESXc/2qriJwnUGndn6sR8bDHgRpEag/aoHqHb7e4MxARO6dDfDP6Otl3XIpCFOgCsXRT1p2qMujV9V/LV+b23L9WG8MBgXnG4ZAjervvmPZ2DlxTxidbmP3v9dvVo/qOESgEKrP6uv72IHDZh+DVolB2nGDoCoOCifyXl0VwkHR6IdAcaINp7tUt7aqH1ixLnd0cHByYQlUIRzsu2gaw8MC5xyWQCE6568Mqa83tpib9NFVG0yg/lgHNNWEty9ZbYT1cF+/au46q+pPdJplpgBta7y3GNIkUCz8SBzu1deftQCtQD310dnq3NCQ+Z0d2k2XgjAFqhB49soRz0LgfMMQKPCf81eqkatPGgen/zN/372m0VQ/1+laBgL11EfnmDZblpdi7UW+H7xq9tJAwlpVB+UVqB9qi4jAQNbFKhWcXNQCFTY457AEinYwpgHYqhwCRYlqgxnRf8nMReYaUSXFPd26cKXZt/joCXU6QHUgrQ7KK1CsB2ivEd34paAaAhU2ON+wBKqt+5wp/L6xcav5G4HC2XNtr2n1WakF6ulTr19fCvtW/R7wkicWxVWgOo1AndIPyGvmLDML8+GmSgUnF4ZAYVX/qqtINHrTtdvSVbpYBgXnHGYj+UtnLjYuFCBQgDXuaVt5h3ZQG/Q+7DUiRlsbC3TSdvXKXBAVQ1oE6k+FBKp1p/p201ZTWL5cX8tShSRMgaIn7tO66oOLW6Mf5qjA+YYlUETQM6fPU4O534dAsVo1bbg36zjEQeHWaUPj+vbre0BbFe6f7UEQuUC5YB8N/rdtOqWCkwtFoPT3I1DUixGon+mH+62LVpntfAc9JIwzoTHcVkURXbZbUSBjwhntUIqBzwtToFzganLuFlxfrxjhsoIiLQJVDKMU92UgTIF6y6I69X869ihIEEzibXB0bBwUsblC/+5P1W80cdc/Mqr+ufeA+tiqBvVRXY3n7GnrmXno6NiHTQLONyyBAq4r53+mvfHIK0xBUNREoMIAJxemQL1IW04EigeSbbg8BIkLSg8JpQSNq6cuDZo6N9u/uH6zCT6WbA4CzjlqgQoTWRGochG2QH1w5TojUD/ZusM85C/QMfiIfjgp/Pac7zX/8wx+R7uPr2/covq0I2nULnl+x3HTA8jDWgycb5gCFTVEoHwCxbrx4N+mzJ7gmP68a7/piWA/AgUotSjdftSyw/xdDJyzCFR5yJJANXZ2m23PmjbXCNSIfgiX699P7yy9tlTbEagnc87k9bo6xUDOIOB8RaA8+GR9oxntSjVoMvAgcLm/khs5WwycXBgCRUllBGrGQiNQDH4jAHgQrEBRh6Zd533L15oGZitQgJ4xeimCgHOOQqCots0/fNz0jEwGelfomWTsTBCbnRaBoopL+w49nmOPdGFwr5ni1KWvVTFEJVCvmbNUfUG78wVHjo8LFFW9L+ltjL97++LV6msegeKc150K1m7F+UYhUFQ9r+qYuq9prMG8EKiactaf0roQBGUJFPOAqALZ8UEMx+dvGsD5cYwr4WHBnSBQPEAkGuP/5z++wHSF02PCoMeb5y43X/K0R+eYeUVf00F0fmjICIYd5k/JwSA778PLyYUhUC64gtjVqNw5cFnd7BGrYuCcgwoU38aodQbwYe3/pB0c404YDAdoiOSa0BDOdZ13+JhiQCngOCtWjIPi3uD8CG6C3wxFuPakeQjYx1gveli+uXGr6Yq3bQhxFyjmqHH+60+fMd3YPOC03QAawl84Y4Fp1+HXIFDf2dRqXn9Gvyb2iLv5+rrxGb/avkc9uu+Q6dXjWpy9ckVNb+8w+w719RvnQlWfv5kjB8IUKD/yo829jeEiDBQeCdiOxvmWIlDEC4WwnVLDdZvbcdQ8D/+jryfXg/g0AqW3fbup1RTYxCY1C86K2RYMQD0zMKieOXWuiSnuB+B+YQo4jt/xCh233gb0sgSKXrcefRJ21j+9QoBZ/YgGXYmU1t/WPwCBoirEGIh/eWSWOY6Jj4v13wzWoqucLu+36h/PZ431ACw34kZQkiIXsQKUHBacXFQCFRSkQOYCBQXnHFSguMlcbyYp/21Pu3E99HwyWXS9/t236YAAb1qw0lxfBIrZ8Ex54H5xbeuOnzbdwHwnbtBWYWk7o0Reot0g4L79fuc+0wNDsLEP4CTiKlCM+Of8iQ9mJvBg9OrfvO9Cr3pYC82rcwLNaP8+vZ0H4pNaoMmyulx/Bg8YPaD0ajLhmweK+KPQnddxzFyLrzaOFZAv1vG3Q193HhSuNTEKohSooOA5O3mp+JARC843qEAxNOCsjkMa6HnWXvD42DV6ty44B3WhRhyB189fMe6gMBPEJsdxfxD6/b19utrapf6uxYbR7zi/dy2pNz34DJfhXn5Zv37WtHnmfRQS1hCUJVCUzky3ICj4GDvKlf/5IdxwSnUTFA6B4vMIBEoqtvPQeAWKMRKAnOM8jPx4gKOw4ORqLVClgnMOKlA8PLR9IVS4AASKEcX0KPKw4hYAN5wbbAWKScxjt1apzWfOmgGyOFLmcnkFijlejP4FOC8EikZXplfgnECcHRTulWEqPKBM9bkvF4uIwS/0OVuBYpQ91TUrUMQbgzU5FnF72tQ5Oh77xx8+esUQqM1a2B/eNzYPjuuzXQsUDdU8OFxTEAeBKhWcb1CB+oS+Xv/QcYJLW6bFhlQwgJpNvxb9327fa/7mPiBKVqAYssO1JJUR7hZnzn36WduuCQJ1h9YLK0Q89wgU4H5WJFDM4P+mfniwZBxA6fO5dZuMCiIat+hqD2NvOCnbBoVjImfNx1ZtMPux58x/4+9Fuq5Nuw/bOFGUly7UN+qHCttoBcoGBuDkohIofgf5kHlgC4ExXX/R1S7EGJcTBJxzUIHiYcD1fEhXVTgfBAqrzM0f0KUXN/ML6zabavFYG9SYQOGcbpq1xEx12a1dABaae0BPIw4MoUKgeM9/6s+ioKBdzStQlJggzgLFbP6XzVxs5iBS4iJQVEG4Pvw2BAqHj+sm1K1AMeKZuKI9cae+PjfqKgvXAxHCtdNzxsDOM1oA36sLROKaWEfYrUAR/yBKgeJ34IbPXykcgwBBQIBXBxw7xfkGFahfbt+t7tG/n+rydP08/Pujc8xzCnkuuf48rzMPHp0gUAg89wUNwImOx7EWth/qah/tuQgUPeLUAN60YIU6oF2WFSiqkRUJlBd8jHeekHVQUYOTK0WgyPOEMtP+QkMkwUvdmoedcScMLGN6CL8HQSAHFA/sg6071bP1+xiJvUk7Ej4D90LOKOrf/FbcDit3cBwlNoFOYz8XHMdjwTkHFSg/rIOysA4qSiSpkdy6eQvroKJEqQJFAU38MEyAe4lDJoaICcbf8bDa6tEtWqBIuYJ7oZrO+xbqgpzmE17jPohJepuZPUC1leoSgovz4TMQCY6lA8WC8w0qUH5YBwUQKOugokTFAgW8vVhUN2wja5Tg5EoRKNpjsPK4iwO9F039GnFC8REknAf1ZEpJ/mZYAROb7URbgoWHhPYyGqoJOhwfn8nIX+vy2EbwcVEpyelhseCcyxUozs97VYPMpasUcW6D8oN2Ji9w71GjVIHi3CmwXqvdGrFHGy339Cbtbu/T1SDadREgCkIEimp4j/4duDpAI/7yY6eMML1fCxRVpdfPXW5icqGuodBhM6K3bdDPxTZ9n+7U1Slw87xl5n/A+ZYrUMyb9YLsClEjFIGqBTi5oAKFXUSYjmu3QymFQNFYahs8ESSElTYvtluBop1tlravgNKLqSVY1rt0lckvULb6SWoPBnXycOOk6Omw4JzLFahaIEkOqhYoVaCoEiFQVDvpObUOhOkfCBTH0S64Xjtyr0DRywVm61hkvBMN9sQoce0VKD6fwSPEMJPDbSO/7d0FnG+5AlULZEKgKKW4yVSL6DZFoF6ba9ijisbNxgHRJoOo8Dfd+rTHcAztOTgw2i0olZjnRjBRRaSdB4HiQaZtgqojwmcFyttlyjmLQJWHNAgUba/EICl9ESicEwXbEv3bEKjbdazR9kSbLQJFCp1zWqBoguA4JuUSf7Qb0r5DQWh7YGn8b+rsNu1wb9Tvxb1bgfKO2+N8RaCqAE6ulCqeF6ycSgOpBYLEDY0anLMIVHlIg0B5QRUPl27BcAg7vipKcL4iUFUAJ1euQNFG5m0ncwVQFOCcRaDKQ9oEiuijWcECN+RtY4wKnK8IVBXAyZUrULUC55wkgUpSI3ktUIlA1Qqcb2oFilxJ9DTEgXT/M2rYf+JeciNc760VaRSlkdR1rpYIlOu9tSDd04zF8Z5fHATKda61IO2XLFrgvT4uHtN0vb8WZLCkfZ4LkcHRrvfWgow1pGPKf45OgeLhqpQIC415rn2l8Jim/6RddL23VDKSm4F6rn2l0HV+fvK7XO8thSyT5dpeDv3nV2uB4mF3nWdQ0sFBT5lrXzn0Xx8XXe8rhXcsW6MO9vU795VK1/n56XpfKcR1u7aXw0LPuVOgwiK2jYGNrn1xI6OKWbDTtS+OpNrLFAPXvjBYa4EKgx9f1WCEzrUvbqTHjiybrn1x5K90XBytwvlGKlCQpFxxFylmyDOK17UvrmTgqWt7WEyDQMF3L60v2h5Ya3581QYz0da1L65kjJdre9iMXKAgeZgYDOnaV2sy94hUJq59cSbznFzbw2JaBAoyRcu1PQ5k7iDVOte+uJLZGa72oihYFYGCzI2Lm5MiIwALjLr2xZlk/GSeoWtfWEyTQMEPrRhLQ+PaVysyGZdpVq59ceaXG5qrVnWumkBBcvIQ+K591SYjcsn+6doXdzIx1LU9TKZNoCCjr4N2ukRNEgySENK1L+5kxLtrexSsqkDBODgpMh5E+SBESVK+0Dvl2hcm0yhQkIbzWrf3kNKXJIiufXEnwwGYl+raFwWrLlCQ7Jq1clKMmiaPjWtfEkh2Qtf2sJlWgYIsN1atWPfzB83b1a4EVuss37mkOo3jljURKFgLJzVXC9OcjokDEpNG8kW5tofNNAsUZHHTalexvtHYorbWqGAOgzyvmzqr29tdM4GCDEEg9YlrX9gkSwFVO9e+pBDnd7RK9yjtAgXJKhDlWDIvGTeUZHGCJN6r9riymgoUJFEcibtc+8Ii0yYYTuDalySS78e1PQpmQaAgTirqbv77tettjukwm1KIQLm2R8maCxQkIRzJt1z7KmX9yU6T7sK1L0nc2n3OZGF07YuCWREoSI4wFlZw7auUxB4LdLr2JYlk+axm47hlLAQKMncv7NHc1JnJVujalzSSsbOaXeRZEijIQgthjy3j+qXBOUHmCbq2R83YCBS8f/O20LpfGe3KjG7XviSSxTdd26Ni1gQK4qRYuNO1r1Q+rAvGpI6z85NYoCbi2hc1YyVQEFFp6a6s1EHkyBnu2pdEMqiUVW9d+6JiFgUKsl7ekQqdKrGXFucEv7epzWQccO2LmrETKPgdfUHK7d1jXh1tWq59SeVr5y5zbo+SWRUoSO9euU5qyr5DZv1B176k8jNro52YPhljKVCQ3EylihQNnbRlufYlleSnKpZRNApmWaAgi1C6tk/GR/YdNCsVu/YllU8cOKIO13Ayc2wFCrJIIw+Ka5+f5HK6r2mrc1+SyYDWao198jLrAgUZcR7USU1v71CzfFlJ08D3r6htJohYCxRknBQuwrXPkt4txMy1L+kkkZlre9QUgRpjkKkdczqOmTXuXPuSTFKqLDhy3LmvWoy9QMHJnBQN6l9rrP4AsmqQAaas7efaFzVFoK6TLvZC9wHXlPQZCoVo3HuNsz8kQqAgDd/+JFlUfe5Zt2nCtjSRJa5d26tBEaiJZAiCfxwaBcjSY/E83zBIDi3X9moyMQIFvU6KoQRfadiSd0xauOd8r1ltxbWvGhSByucH9QNrh3uwRL5rmaS0cIGOvahG15fCRAkUZIlxevdq1TZTLf56+56aJlcTgXLztoUrTa/q9APJn9s5GT+0svbuCcZCoFhAcMbBI4FJHmfXdherlTu5GJl24zq/Qvzi+s3O7S5G0U6QJYFi4VLXdS1EEs65trvo+r5asJTf+LgWX4b5uPa56Pq+sBgLgWJCJQsrhE1+WBxWa0Eko/iNf9HkN0Zx37IiUMSH69pWSntv4rDs1ZKjJ5znWClZqi3q3xgLgbowNJwLz3DBD4uDQDFM4vLo9fX5w8LVJ580v1EEqnxuPnNWXXsy9+Uhwt6bOAgUbZlR4NTAYOS/UQSqChSBCg4RqPApAlUhRaDKgwhU5RSBKh+ZFShWLiF737eatpoFKkeuXTO9Wt/cuNVsY104wADNL29oVt/Z1Kq6Bi+bbV7ww+IqUCcuDaiLwyO5v5QZ0wW6L18xien6R8b2ndZBYO/LNR30XohAVU6XQJFDzMba33a3m23fb95m/v6W3r76xGmzjdiDDGgkRr2Iu0ARM/Znc+5nddwBOly26Xs/fPWaiTeOg50D+c9XZgXqiYNH1KWRUXOBWrp6TG6nO5atVaP6QrLtHUtWm4v7zGlzTSDw8DO50w9+WFwF6taFK9Wn6jea1wwnePrUueqMFlmW6mb+10tnLlKD+j1v17+V38ACo89/bL453kIEqnK6BOrz6zapy/qBINYe0MJ0VcfdK2ctMX9zzW+csdDEH0Nd+JtssPR6eRF3gXrKlNkm3sAn6xvNmMIdPRfU/7buNEvFv/iJheYasCozszV+oK/D33NibZFpgWJxQE7sNXOWmgvBdAMWWfiRLq1eP2+5Oe4Z+qEmVxJrdXG8H7w/zgLFwD/wde0En6vFp1MHzO2L6sywi4HRUfMQIFAE+5Au0Z6hBdkLEajKWUigiDMyY7xu7jJzH14xa7GZF8qqOrYwvG1hnYk/7h9z8byIu0C9bdEq9eGV683rV2jxHROo8+pL2hGy7uKANgiIAqlW+P0UovfqY7zItED16m0nLw0agQI4KE5ypt73q217zDYe2J4rV9S5K0Pmbz/4YXEWKNboo0p3py6Jnzt9zB1RtcMtPU8LFtXWty9ebcSZkoxqoRciUJWzkED16wd097kLZswT4CEe1k7qHv3Arjh+ymxDqIi/vuH8NtS4CxSToF/8xCK1TccmcYVAgfP6WZp76KhZvRoHdePjC8yzx7g8fzU20wKFgwC0B9DmxEXipgMcFG0zVPEmAz8szgJFlYHfQpsGAsW6faw+w68kt1C7tto4KI5zQQSqchYSKBwr+MyajWaiMAJl8QJdeBCfH121IbclH0kQKFZTYjl4fikC9Z3NrWpjZ5eJv0/WbzS/8bNakAshswLlfyBRbq9627YASrTJwA+Lq0Ax+ZlfSQDwP42tYLYuvd6jHRNiBai6+h8gCxGoyukSqFFP/BFr/vhjP0fQJloIcRcoGvaBvb9kAuU3IQjEH3Nd+c0MxiyEzApUWOCHxVWgwoAIVOV0CVQYiLtAhQERqArBDxOBKo8iUJVBBCocikBVgSJQwSECFT5FoCokDeE0CgchdWLXdhfjsmgnk4VZJ811jn7+fc8B9dDeA859LkaVBzsrArWlq8d5XQvxT7v2O7e7GJd18Zgs7Do/F0v5fcRqQ2e0qY5jIVClkFxQ71+xriYLCUTNh/QNZ13AWuaBssyKQJVKlpSil8+1L+n8SkNz7BZ+SJxAWTL6lRxLrn1JI0tuf3DlurLXAoyCIlCFSeH4xvkrzIBG1/6kcf+FPjPcoNb5x11MrEBBrGvS0/7SRvZV/Rvi4Jq8FIEqzj/soLnhkHNfUvhXXaX78+79zn1xYKIFCuI+WFwgLpkzS+H9m7eZQZqufbWmCFQwMm/tY6saIumoiJLM93zvsjVqZ8yfm8QLlOVvtu8x02Bc++JGqgZv1Za6vbfPuT8OFIEKTp4bJn4zMtu1P25k3iDzB+NYpfMzNQIFWQnlc+s2xfrC07PIQ+/aFyeKQJVOcnnH+d7SjEBqovqTnc79cWSqBAryG5gjxQPm2l9LvmXRqsRURUWgyiPz9pjgHYfxT17i2pnPGoelpEph6gTKEqfy87Z4lGY05n8hYV3TIlCVkS57lkR37as2acz/zY69zn1xZ2oFClKakS3Ata9apNSKw2j2UikCVTkZBEpbo2tfNUiV7pWzl6i9F+Lb1lmMqRYoS9K3slKqa19UZAoFVU16GV37404RqHDImKm7VjeorVVuciAbxn1NW537ksRMCBQkfQQJxlz7wubvtJ0mQFz7kkIRqHA5p+OomRri2hc2SXBIh5FrX9KYGYGCHX39Jo80D59rf6VkbMnHVzWYkbmu/UmiCFT4JHc5rvqQjkPX/krJ8IFPaLeWpuc4UwJlSQN62HOOeLBY8cO1L4kUgYqOH1q5TrV0h1tIsmhD0l27i5kUKEiV7+O6tKl0igltDJSK60+dce5PKkWgoiWLLYQxTQvXjms6mLDhA0GZWYGyfOeSetOg7dpXjCzT877la537kk4RqOhJ4cik4/1lziggPfT/aufk2pcWZl6gIAm9vrB+s3NfIX67qdUEiGtfGigCVT0yTauUBnSeU5aMakxJNo/JKAKVI6XZ2xavLjo/bvf5XvXaOctS1RDpoghUdUmqHXqZiw1LIcXQh7Q4Vdo0kRSKQPn4m+17zdJPrn1k8/z9jn3OfWmjCFT1ieiw/tyOAtOhWKOPhHmufWmlCJSDLPX8idWN46UZwxNIqZHElC7lUgSqdmTMFNfd/k1Oe5bET0L2gbApAlWAiBO9IwuPHDczwLNiqS1bu0WgakkKw9sWrlQPtu5KfFK8SpgpgWKGOdW33+pqXFCywKFru4uu70wqxUGFT4ak/GHnPmfsFCIT3l3bXXR9Z9KZKYEioRgrbZDFMkzymVxE13cmlSJQ4fPR/Yec8VMpHztwOHXxZ5kpgYpqDbRR/aEiUOEg7QIVBbbmquOu70w6RaBCgAhUeBCBKh0iUCkhVTwRqGAUgQqfIlClM/MO6r6mVjVy7Zp5/dsde83/71pab/4Hty2sM/+T+AuStpdlrb0QgQoPWROoO1euz71SZgDw2ctXzOq+YHB01Iy7OzN4eTz+WD/RDxGolNAlUPesbVLDOYH6Uct28/9Ns5aY/8GNjy8w/zMOCrBMDzPHvRCBCg9ZEyjm4ln826OzVbcWKIYWgIGRUfWTrTvUqYFBM0ATTG/vUEuOjL22EIFKCQsJ1AtnLDR8+tS5ZtvLZy0e3/bs6fPMNqbBrDt1xpRgDJzzQgQqPGRNoBAlG2v/75GZRqCeMW2u+ftGzR/nBOpnbbvVWh1/r9SFJy7LCxGolLASB8U8Kax2/8iI+dsLEajwIA5qooNiHB4CNU07J+KPB9UPEaiUMKhAvcIrULoUA7aK54IIVHgQgZq8iueCCFRK6BKoy6PXS6Thq2NCNTA6av4H9rX3OD9EoMJD1gSKhnAL3DnhaQtMXg/pmLz25JMmxgpBBColdAlUGBCBCg9ZE6gwIAKVEopABacIVPgUgSqdIlAhQAQqPIhAlQ4E6sFWEajEc1vPebOaSxA+1n7YBJRrn4usIuv6zqRSBCp8krrHFTsucu1d212kh++QLJqQLW7TDyjjTlz7skARqNryU/WNzu1ZowhUAYpAiUDVkiJQYxSBKkARKBGoWlIEaowiUAWYeYHK9QyJQNWGd4tAGYpAFaA4KBGoWlIc1BhFoAow6wJlx9aIQNWGIlBjFIEqQHFQIlC1pAjUGEWgClAESgSqlpQ2qDGKQBWgVPHGBOpvu9tz0lEdiECNURzUGCcI1P4Lfepg30WhZnPXWVV3/JRzXxZI/nbSzVYbi46ccJ5P1njX6gbn9qwRgfr7ngMmzfYN5J0RjpHUvhtOdzn3ZYVRzFssBtd5ZJGfXrPRuT1rvORJEHlD7n+BBmlVcZQCQS3wlYbm3CuBhQiUB2Q2FIES1AoiUPkQgfJAHJSglhCByocIlAciUIJaQgQqHyJQHohACWoJEah8iEB5IAIlqCVEoPIhAuWBCJSglhCByocIlAciUIJaQgQqHyJQHohACWoJEah8iEB5IAIlqCVEoPIhAuWBCFTpYL4UkzpZhXmylXAFxSEClQ8RKA+yKlDICkttw6ASw7Ui+4N3GW+W7G7X1+9g78XcluLg+yyzDhGofIhAeZAlgbo4PGJ+K+ktLgwNGwc0oMXm3JUhdUxvY1+Pvh4u7D3fq0a1mE2GQtdx9No1dfhivzqgRez4pQEzvYjvPD0wqEj9w/v6PZNFswQRqHyIQHmQBYEa0QLBgqPFBAZwxO5zF1Tn4OWxDRqIFtW6ICB9jQXVwBb9vQMj1x1XIVBVZEVozjVLEIHKhwiUB2kXKFwKjqVUUPU71Nev+rTrIutmUHD8GS1uu7TIleOKeoybu5T7K/0QgcqHCJQHaRYolslGaCoB7U19w8O5v4IBYasEtLvTrpUFiEDlQwTKg7QKFIn4aPtJKhDW7T3nc3+lFyJQ+RCB8iCNAkW1rjLfFA8gUjSipxkiUPkQgfIgjQnrEKi0gHYsehvTChGofIhAeZA2B8VS5mnD1u4e0y6VRohA5UMEyoO0CRS/J21grNae8725v9IFEah8iEB5kESBGrp6VZ2/MmQGW3rHDV0aGQ001ilp4BfVHT893q7G/4xgp+oXdHxWXCEClQ8RKA+S1AbF+CJGYyNKNCBDM9Wkt0919PWb0dmVDiuIK9ac7DS/ncGcFCpcA3opGQbBwFKuTRIhApUPESgPkuKgmGpSrB2GBzitAtXS3WNGphcCv5prlLRfLwKVDxEoD5IgUA2nu3KvBMVAg3qSIAKVDxEoD+IuUFma9hEWcJJJgQhUPkSgPIi7QJEFQFAauKdkbkgCRKDyIQLlQdwbyemxE5SO1Seu9/rFGSJQ+RCB8iDOAlXqJF3Bdaw8fso4qbhDBCofIlAexLmKxzgnQXlAoNpKSBNTK4hA5UMEyoM4CxRVlKQPRKwVEKh1p87k/oovRKDyIQLlQdwbyb2ZLQXBwFgwBCoJwzNEoPIhAuVB3AUqrXPQogSJ+hCoJFw7Eah8iEB5EFeBomJHZgJZ1ql0MB+RHOzMV4w7RKDyIQLlQRx78ZCkOLu6pIABm8MxzyoqApUPESgP4uigSlmkQDA5qO7F2YOKQOVDBMqDuDkoRo5LpS5ckO0grhCByocIlAdxc1CFFs4UlA/a8ToH4tkbKgKVDxEoD+IkUFlYxaRWCLpwabUhApUPESgP4iRQaVrsIG5g2tCOGBYAIlD5EIHyIC4CxfLgw1eztex3NYF3Im1w3CAClQ8RKA/iIlBJTVmbJDD1JW4uVQQqHyJQHsRFoI5I3qfI0dTZHbuMmyJQ+RCB8iAuApWkLJBJBZ0QcZtALAKVDxEoD+IyDqo9BueQduzT15g5enGCCFQ+RKA8wEE9fuCwauzsqilXnYhfA27awPJcCJTr+teKH1qxLnd2AgsRKB/IuVRrnrw0kDsbQVTYdva8ESjm57nuQa0omAgRqBiCqqaEarTAsSBQaV07MC0QgYohWIXEu4y5IHywOnHc2qAE+RCBiiGw+pdGRnN/CcIG4o84rU9AGuCsQwQqpojjVIy0gNTJCFQSFlLIOkSgYgpGOUvrSDRgnTwESkbsxx8iUDHGXslBHjpI/Ys4SftTMiACFWPwMMlqwuEBR2obxyWdTTIgAhVztHT3SFUvJCBK1j3JAhTJgAhUAsCabuKkKsORi5fGxUnmOiYHIlAJAKX92IMlc/TKAbndrTitlaEFiYIIVEJAitokLN8dR1hxov1JRo4nCyJQCYI4qPLAtBYR92RCBCpBYF03QelgYObmM2dzfwmSBBGoBOFY/6XcK0EpGBgdNVU8QfIgApUgdPRJKuBy0D88IgKVUIhAJQjSBlUeGJEvApVMiEAlCLJWXnmwvXiC5EEEKmGQKRql4Wj/9QGaguRBBCphYDwUD52gOC6PXh0XJxk9nkyIQCUQjIzeee5CwUGHbKVBfU9KsyHw2473D0w6R/HEpYFxcSK9igzQTCZEoBIKqnos3834nq7By6p/ZEQd1w8l8/bS7hqs+NRp4WHxzUv6tyM/iBDibfM9WcrE4ORCBCrBwEV4H0Q/Eas0AvfI7yPrqP83e0lK36Grkts9yRCBSgFYBQYxwlFs0P/b3r60tlUhPAiQXVjilP699bk8T0aYTp8x7U+C5EMEKuWgOpQm2FHhsrhpNiAClXKkzUXZ9qUtXT25LYI0QwQqA0jLRFl6JW01bljaljIBEaiMoLU72Uss0UNpxWn3uQu5rYK0QwQqI+i5MqQ2dnZXlN+chmdyK5UCetpYiLQSeJ0TDeQyaCA7EIHKEBgvRU/f4GhpqxYjMHbCLWQ0e1DY9zC4slRhYfwSiebsZ5ARU5AtiEBlDBeGhs3DTiOz7aYvBPaz+i6iZkUC7rsQbIQ6CfY4nh63+hOd5v99F/oCCRWDTL3fyzAKGQ2ePYhAZRA86N4R54xKJxke44lwOoiX3eclo7YBwoX4TCYX3qkmNo8VLozR72yjN46/GcOFaELOgSqkfZ+lzKPLLkSgMgwWBvVPC3GRNiB/rxnLODE4EnFjCfG+4WF1VovNrnMXxhfHhDgnL6gueldZmYxNZ7plJHjGIQIlMG1KTJthCglVOv7HzRRbi4/qmktYLGnQHp2kGon44MToYWQoRHPXWfP9J1M2uFRQPkSgBBWBhmyqc/QQIkq4J1yUTDURhIEbaI9gee1fbtutHmzdJRQKhU6iEQdTvLIQ7aDT2zucv10oFAotFxw5bloAbmCYyYOtO9X/bhUKhcLC/IU2UGldmpHm1r/ubnf+bqFQKPRy3uFj6orWjBt+s32P2tp9zvSdCIVCoSXdHeiDFY00G6gtXWfV7ENHnddBKBRmmzMPHlEPugzU73bsNSPuGAQjFAqFlq1aONCHLBgoBuAtPXrSeR2EQmG2uejIcTFQQmHc+Ied+9QPtmw3U3/sNkbwT2vvUA80b5twbKlk/iOmgEGzrv2WzLv83LpNZlqRd3uWDBQtUGKghMLqsr23z2gM3efHfPse2nPA7Nt/oW/C9lLIFM1H9h40WaVd++tPnFb3bdyqPru2SX1p/Wb1d/2dhx1+SAyUUBhD3l3fqG6Zt3x8HVKIgfre5jZ1s95ut7EfI4TZIf+fNVwc29570TQzM52RqZE8zwjGEwePqNfrz1h27KRTQJgj/ob5K9TTps5R/zZltlp+7NSE/WKghEJhlMTgfGx1g6nAHfX5kC83bFEfqdtgclHw9yGtgWhfs9ZAEip7NRCTZbvbeM029n97U5u68fEF+nsu5H0+pu3GGQvHK45o5O2LVql3L63XGnpdj6EYKKEwhsRAPWvaPPVfy9epD6y4zlfOXqJeN3eZeaj/tGu/umnWEvU3/cAzLolWq1fov/+o//+z3ocJwiyR+OZbTVvVt5tajdDwbPM5U/YdmmDQLDFDB7X5WnD4uPqXR2aJgRIDJRRWldZAvWzm4gn6B9l2Z85AoWs3zVqsHt57wCTvQgNfNmuR/vug+vSajerVs5fq5/eESVXx4br16j59/O5zvepLG5rV86bPN5VFMgq6zgGij7/S+kZlks/2t4aJgRIKY0jbAkXtym7ztkDxYN+1utEIAuaF/Ziqu+s3qlsXrDQtTj9q2WHM1gt0Tes50+ep7+r30jTOQ4+5Yqat/WwXxUCJgRIKa8HJW6CaTQvUNq1DVDLv29SqjuWOQRc/qbXzKw1b1M6eC+pe/f8rdaXyeY/NV097dI76v9adpivu/uZt6j+0LvpblCwxVRz7XP0+TNqhAiZLDJRQGEMW68Lj9T91LeulMxep72sxwAwxNuqFMxaqxw8cNqbm1XOWmuZo9t2ra1yYJpqlaZHiuB+1bDd5373f66UYKDFQQmEtGLQLD/Ny44wF2uzsMovofKOxRb1i1mL1WHuHPma9aWmftv+QWqKf4fetWGeGLtCdx/uePnWuaamyXYGWf9/Triuc89VtC+vUz9t2q99rrYNT9ef4PZEYKKEw4aS7ja452xJlicnCICEQ/q46Wqs4nmO824NQDJRQKIwT2y/0aQ28kOdZrAayjIZ/vCfHlquBlmKghEJhSRQDJRQKhWKghEJhiRQDJRQKhWKghEJhiRQDJRQKhWKghEJhiRQDJRQKhWKghEJhiRQDJRQKhWKghEJhiRQDJRQKhWKghEJhiRQDJRQKhWKghEJhiRQDJRQKhWKghEJhiRQDJRQKhWKghEJhiRQDJRQKhWUYKLYJ3awkJbyXfI7r84WX8tLxV0LX5wvHOFksi4Eao+u6CccYxnMqOjg5XdesVHKfXJ8tDBbDgQ0UC/D9fc8B9WDr9YOFE1lsdftiZNHEeR3H1C91geT6fOFO9fC+g2rfhcIL4AYh9+kPO/c5P1+4U/1q2x7V2NnlvHYw6waKVd6n7DskWjgJFx4+PuGalUoWhvXGmHAi0a+t3eec1y4Id5/vVdPbOySGJ+FDew9oE+++fpaBDdTyYyfNgn2CiUBM7cWr1EBRMD1x8EjukwVe/H7HmOEZM1B9zusXlBjUSyOjuU8WWCzTzziCOmagup3XDmbZQNEqsvL4KdFCBwb0M8Wq+MTEQl2weGOmVD6kK+uXRuUZ9WPa/g5zfTFQPIeuaxeEC3RB39Ldo57Mfa5gDGcGL6t/6NjjGj+096AYqKjBKs/24omBig5ioKIHz7gYqIkQAxUcA9rwhGmg+DzBRNBqxPUNw0BtFQOVhy5toIg9rrEYqCpADFR1IAYqeoiByocYqOAQAxU9xEBFCzFQVUYcDdTotWvq7OUr4+y5ckUbhpEJD8u1J59UfcPDaujqtdyWwsBs9A+P5P4KjgtDw+pySCIoBip6iIHKhxio4IijgerVGufVQjQJffSCAu+i1rdiZoL954eG8t5fDJf155+7MpT7qzKIgYoWYqCqjDgaqMMX+9VTHpmlvtKwRc3QnzfjwGFT4N22cKV6z9I1Jkguj15VczuOqW1nz094iK5qY4W58mLD6S4zuH1IBwaf+Z5la/IePN7Dey34+/ZFq9R3N7fltlQGMVDRQwxUPsRABUccDdQ965rUa+YsU4/u71CzDh01+vH5dZvUC2csNPqHYu0536se0xqJ0bFw6eCwrmz+Y0+76tD6eqD3onr+YwvUBq353qP8Oghm6+99xrQ5qnNgMLelfIiBihZioKqMuBqof50yK++zqH19YnWD+mR9o349pO7W/09vP2weovn6xt80a4n68oZm9a2mrerFTyxSr5+33ATQz9p2qU+v2ahWHDulbp673IgPD3CPrlX9tz7+1XOWqm9sbDF85rS56psbt5ogEgOVLIiByocYqOCIq4F619J6U/mzQO8e14bpudPnmbilcvj+5WtV79CIWqHv7StnLzEm69ubWtVLtQ6+du4ytVebLFrxb5m/Qi0+ekJ9o7FFPfXR2epjqxrMDPVva818pdbPr+nt6N+zp81Tn9OfgekSA5UciIGqMpJkoAa1IH12bZP6wIp1pikaMzVNP5DD164ZU0QNzYJp7LcuXGkKDH4bZgsB+SotUEuvt0CxHwH6y6796j4tIpiu9+vPx6yJgUoWxEDlQwxUcCTFQAHSLDz/sflqt9bvOVr33rdsjTp7eUjdqHXw4X2HxvVte895deuClWrvuTEDhZlae/KMOth7UT1Pv9+2QJ24NGAqoX/d3a7+Rxuv/9RG662LV6kLupIpBio5SLyBoq+YqYR+9uoCmZtNPzauntddg1fyHoxqI84GaqbnszBJv96+Rz1H17oQBa+BotmZh/07m9qMyeJv7v+rZi/NM1D3NjSr9+a68IiJf5sy2xQwBA3vu7NuvXrHktXm96TdQHGteOBcMUgzPvsoBDCTXB8X2M5+f3dBLSAGKh+1MlBEA8+bSwvhqI4XnmG0EDCeMQzDUQniaqDerQ3UsOf5I35vmb/ctJ5f0xd6bs5AXbgyrM3WGnWv3n5RX3vwT30er5i1RBuoCxMMFF14GKiG02dU/clO9Rz9en7HcdMNyLP8yfqNxkQd1VpMxTTNBoo4ROtc4B5SZjNujLLdNX6Mc7Dleq2ReAP1wZXrDBcdOaGWHL1OmkkplHDzx7XbR0AI4Ed0bcGCGzGqn4hqFkZxNFAE6rebWieQgnH1idPjokThTzLALV1jDxGC8Fj7YXV/8zb1wy3bzfFv0AJAzYp7P3V/hzEKmBeMFibktBYExhHQbI2xoiBtON1luvwO9/Wr3+uHHCENA3E0UMQgZvFDOl4REQuEgNa412mxZfsqfd3be68/OzZOiWdyL1FD7tYCYsH2ES00rij2vjdsiIHKR60MFPf3j/r5uW1hndE8rxYSM/26MOc8DunnDL2jZZh7MZQroKKMk0KIo4Giq86rg2jXlP2HTJZpe2UoW/62u92YH64nGvx9rYMPNG9Xv92+V92sn+P9+n5TMP6ibbfRSq7rn3ftN8MW0Dx+L9166CD619DZZQpWjm3tPqfu1xVJa8oqQRwN1DZ9Hk99dI76Zdse5Q03KvKMl/2NvoYM0p+vy4oun85BtI7KOkNE7Nv5H32FLvC+QvsqQSoMFAOVueAU8pABz4gEBRMXGsfvNVDMMnujLuxfPnOxEX9aVuiDxjBEjTgaqHJAM/Zz9fW0pEuPrrnwQ7Q8xLULj+SBdFsipjzUXK8Fh4+rl+lY5GFknNjHVm0Yv68Y0Rc8vsC0zP1AG9WnTZ2j3r54tTFQmFlimjFqPMTUdu9a3WhaHAAtf6+Zs9SIO7Vkjp1x4EhoFQYxUPmotYH60Mr1qlPff6uFmAruN7F1p96HYPsN1Nf0a8YwEl9UiGh1phCLosDxIo4GqlTwDNC199zp883zxbNKKz33Iw6IaxdevS5rGUNLGchnYor+R5vVe9Y2mRZ2nps3LlipWrTGYbi4th/Ruvigjpdn6/gkXq2BYgzZi59YaGIXraMs/7k2rrRe3atjm/vzhfWbtRluNePQvqhf4xHCQCoMFDV6RGu5vqAQh0+Bh4FigB/GyBooClSEgsHLDPz7giYXlIHN9F3T9Rcl0mKg4o44j4EiPhlcv0vHwslLg8bM04KKGGCgPqqFgpmQiArG1HuPqQwwZoxC8kV6H7VdG8cYKWKcrti/6BoyrREnLw3k3qnMdyBKvDcMiIHKR60N1O2L6tQcXZGxWgj7dOUSU/1hbaBoAfYaKCpC/z5ltvqv5WtNDMH36dfEFV33USINBiruiPMYqN/s2KM+WrfB6BGtpm/WesXge8Bz85/zV6rNZ87qMnxprvt07NuJdcbbrtSxvUQ/a/+uTdEdnvhFH6lM/l/bLvXM6XNNi6E9b4zTS2cuMq1bYfyWVBgomkVdtSWXgaIF6p/6hz5j6lyzvg/v4oYwUJrulagfwjgaKK4BXW+29e7UwKDZRgFux08kDXEfRP6b7XuMcbpj2Vr1vc1t4+LgNVCA1iZqVdwX7gNC+Da9jaZtYpbWU7pgeTemhIrAYm2U1uvYwnzRfcM+xrTxPTwv5/XxYUAMVD5qbaA+ogskchn5UchAYeKf/ugc9cdd+xWdecTKY7rQNYVZxOccRwOF2aR1l+vA/4wVQwcpKHmGkoY4Gyi0jtnaVACJQZ4T+/nWQNEC9bl1TeqWeStMDLO/rfucekmuBYrB+bTK/1brKXHN/icOHDEGi/8p83/SstM8H+zDqGHINpyemE6iXCTeQFGrXqsLC1sAecFFoznV9l+z2B+zKAA3CCNFUx+DpSloMFxRI44GioL5WdPmmhkhBDVjcBAj+vGp0dJVxLVkjIQLCIv3+nOsf5sXCJJ7T3iIu4HiGjDegnFl3uZkXjPtmXMGmFqmSnMOxCkDTOny4/5wP5q0cUEcadrm/pGjxl73zoHL6tH9h8wYC95L61WYFQQxUPmolYHinlPTJnZckxToOkYrGWNDdBAL1O55VtlHXBFj6CGvKRiiRhwNFF3rb9GaRyWD60PeuyMX+9W7l9WPDwWha8ilX9wD/6BndNA1EBpw7WGUiLOBApTNj2oNpAz3fjZGFgNkhyPw3VQQ0A5mL1LBPKz9BkAzaUm18UsLvG1l51mgtYmxaJDYPhtSBRIk3kAlDXE3UHQvvUi7ewbeWwP1NF07YAzOT/U5/8fjC0ygUjh/cMU69XTt/j+laxH0Q1NI4/h/1LLDfBYtJexnACvdAYz9oeuUXCiMW6O15Lc6bgBCQsvL25esLmi8SkHcDVQaIAYqH801MlBJRJwNVM/lK6a1lpY6BjdjoNBBct4Rvy+esVD9eOsO02r3iC446QZlFh1dTVTM36C1jskeFKpoHfr6O61JHP/1jVvUv02Zpd66aJX5fLqf0E27esMabdSePnWuaUWuVAnjbqCSDjFQVcbOnmQZqLfoh9y22oE5HUdNKgJqu3QheVMfUFhQoNIkS3oCZuX9qz6WLkFroKjRWVDr4LPoYkW42M/U3zAgBip60GorBmoiatUClUQkzUBtPNOdO0rpe3xCPXv6XP3dl4yBeu/SNcqmPqBApKv0Kw3NZlwiY8qoOFIJtQaKSuSTuYoirSRUNj+ztskMKyH5JpnOwzArYRqoFjFQeUi8gaLwp1mavBC0XDBin1H8lcDOXgH8loMhin0SW6AYg0MrEs3aJNZ81ZylZj8Giu4kQFMsU1BpQqUrlOMpXJn1QBegNVD+mPi7Dj5m/TAjkmsTFpJooBAnjCnXma5UWjMKNf8HAZ/HfbBdDpgWUkmEJYLSApWPWhoo7isa3NHXb55pvpNxPJWArmbGAQE0lmeZzw4DSTNQpBohtQDlCzMXmeFN4YeB+pDWwhH9mivzex3rr5i12ExIYu1Q4v/ls5aY8YqUURgozJI1UIDjGJtDYk4ymod0iRPXAsXn28k1vCaWYSXgHtFNDfhcBqqHFcM1MVAEC33DhX4CH1iob5h93rE4BCkun8HhvIeC2rsQI0fyXQiBH1xEPs/bZYRIkCSSsSOAwdX+38Hn8RsKnT/f5fo+EEcDxe/gfiEU/H7GQNGvTOHLuna0Gpk18jT5Tq4X123TmbOmQLYgOMk7w7gzxlswHofxOzwA3Cd+L5/pBdcSk4ZwhRXUoBoGiutA7ZHf4ALx6I8vC3sNvfuIGabn8lARwxRW/sWb+T7XszEWkxM/zxpgWj3Zyn04lRMmwP+8r9D52/2FnkUxUPko1UChZdw31xVmm/+eeuHXGY6ikGdg7oh+DxVL71gmPof76RrLaOPRf69pTaZrnW/B1NMK4Y1Jjp/sHNnPObr2xtFA8YygeVwn9G2HLk8ofDfq+LZ6y/gbYyRz155yj/FS9jdSAee9jHHkePZxPLqKxvGZ5Hry42FdAN+hK6En+itPoGlRDQNly1GXThAXxEshDRmL/+vxxPFMYCAlAa8pkxgo7gXHu8rXse/K12MmT/xSaxT7Ka8wUCOeZ4DthXQa8Ptc3weqZqCoCdnmTEbCM/aFRRsZO8Nps8Ya3TlMQWQgJP3GL5252AgQBS9TFd+5pN58Li0i5M3hYfYaKC4c76HwJrg/vqpBvVZ/xz/0D+T8GL+D4NNKQkHFoDS+lym8jNWhZoHY8dlk0ub1T7buMDUHPvsB/b3M6qOl5o8795sbzXdjNrbqB4LkYIzheUQX2l9vbDH5Knh4vIijgaoFEDuuKy1PP9MiWklLiwtRGihq5LfMW25a4zCVjP0itmh257lkthuzPKm9IsbUZIkxzDifxVgKCjkElfghjmi65yG1BooC5SlTZpnBkLT2kWLjbdrYI8p0BdAlUHf8tCkw6Wblu/+2p9181mfWNBkxYNIEn8f5INqk6+BcyZnGe0hz8CdtXHkOiHmeK8SfhKbEMjO6eHY4R6YF87x5IQYqH0EMFIL8zY0tZpbkn7WWkOsLo8u9ooWDBI50fZMTZ/7h46Y7nFlHxAL34NWzl5oUFrTeEud8zq/0faWQsgbqPLq4utFMUkCg37dsrZnRiV5wD3juSHfAeBti9Ts6RsgRhu6SN2epvrfEDHFHyg00lfNkrA8mHA3kHEg0ifaSf4rzpwDZoQ073fcvemKhmUr+k5Yd5hx/qP/3FlFxNFC1wCx9T7gfjClFq8JElAYKM0Bvxf/qe4guoYckA6blnFghhslFRwzTYveymYvUKv0sYO4Z80XOrJ/pshhD+qo5S8xagKy5ag3UVa2HaCjPARXv727epl6ny3PijfhjDO1fd7WbWGf8Gcehx2jsjTMWmHNimAg+g2vLmDKuw7u0j+B7NmptRudoDeQzv6i/Hx3ntzI84VnT5pk4xqvgU9BjynZvy2HVDBSFA8JC3y/pAt6kH0wuIAOQrYFiHx8GEJkPa+FgUB5GgxthWzsQCgbz8d5CBoqL9S+PzDI33YJChe/ivKhZkbKfQoTU+xyLQNkWKISHYxk4TUHPdppsORcLBIaClNkZGCjEhlofQDhZA862ZFmIgaoOojRQxB/3lS5Mxi7QNYkg/F0bGPZhWCgEbU2IXEzULGmd47Oo0duZdwgD8UthSO3JZaDIeszz4gXfA6kZU2BSuSDH00u0SHFexDotUIgRccq5WAPFszJW2I3NYgEcgyDRgouBorC12dJ5xijAERUvZAxUPoK2QHGdqeAx0BjdePmsxSaGmHVE7JD41Mo02okB+bm+bhgokqOiRxbTdGGF6eG9LgPFeBzyOrV7avJWC5ntRF489JVYYfo3XerMVmI/OomRJpJJlIuBau7qMfGMAbPnSEvCa+eO5evZnjNQ/EbAd5HE0yzpZN+gIQYqekRpoDAh39601QzdIG7Qn5t0HFOuYaCIadv9C76tzTYNCxf1NqOXuw+Mfx4t7lTSMPSUyX4DxfODSeL5su+xMUzsMZMPk4Qe35zTYyp/V/U+fAQtUBifP+gKIwaK7/svfTzPCp9jgcnnuZyqrxsGihYwgNbyXHxX/wbv8VUzUI2dXUa0qZFTy6VbCPHgoeV0MFCcIGaEliDEGcPCg8UNoTUHs0COEz6Li4wbLGSgEBgMGmKEsDBrDCGgIML0YIwovDBl5JGisCLAuLDcBKZ+8xm2BYoClPPFiZ7U72EftT76rWnaxkDxW2xzY9oMFAUs30cgscwIgV6oWTMImHFix2cwcJxrUel4DS+iNFB0N5KXhMKMGCKVAFl1iSliEANFjidMBa09tA5RM6Nvn896xewlJr6JXVqRMC4MpC/UAsW1xhgx3ozxUXwOQoUhohWAmhbPFLF3d/1GY+jsfaJlg2SKxKg1UMQgzwaFF3HMs/G1xi2mFYEB/xgoKjlW/KyB4pn2Qlqg8hHEQPEsEQ/EEbFPyyQt3mgc9/Y+rVlktt6qrxv3m6VEyK7MM2JboNAhdI0uJwoETDOx5zJQfD4tjNxX4mBMm+qNxtFiTsFHHGCYiSVa42kZQ5e/rA2Rqbzq72LCCAbqwIWLuiDcYmKEpUzQa/a9QBdas7Wpsi1QdOGDNBkonjNajrkvxDCv7XI45YCGAu4Pl2VQV6oYg8ozGBaiMlDoC2UtKx+cu3LFxBULxKMrS3Ktlc/S8Uy3JGUq5T26R4Jf4hSDQ/mIZqH739ncaspXGiBcLVCU0/RO/VgbnLODV8w1+4LWMxpR/rBzv9FbuknR40Z9Dfmun2ptYmA/FVY0mRj3tkDR+sU58lzxvPBc4jmYRb5IV3YxUHyP/b01NVCcAGNkqDFTIFCo8SAjGOzDQHEBGURLsxs32w4G5wdyUdkOSa7FxeBn8N6j+nu5SfxN/yaCD9jHOfB+jBvnR8AS/Hw+Zo2+aG4OhYr9TP6mGZIaPOfM+wA3npwgnAOfyX7bksCDxc2nFQFwLOLGd3lRLQPFb+ecCpkczptzdIFrxH5voNC9g5jymRSsPOR8hwWfxW+/vuU6CBDvPoQOoWcNPcA5cs35bAu+m3ModP7UOvhc1/eBKA0U58aDT0xB7jPHUVthHw8rD33TmbFYZxYjDzbgsxAO9q3V+6il23jlt1DoEPds44G2XZsUtDwrfN5mHZs8uBzP/3QTE8vs54HnM7g33EeeDWKZ7Txv9n2MI9injyOWEW0mAQznxiIgaEycsPeX/4l1zKAXYqDyEbQFimvMfeF+EgPcF7QBHaPSR2Vvh/4bjWC7HQRrDRTXm/tGHPE9FrR2ci+59+gWnwd4lohDvq9RV0B5fu0ztvvcWBwQR+gd94bP4e5zz9FkupgxbJwLMcl7+Qz0nDhmu40PPpPfa3sTAOdia/MW1TBQnCe6UkzrxiJ9ItjHe/kMC3SKWXK0wvF7uU5eHbTX1PseC78OAipOVHj4Hr6Pa2zvtQXPaqFzZBv7vOfgRZQtUJwnsUtMEZdUxCgDiW1aRenCxcwQw7yX8hVwrhioB7T+o2VoKEbclp1U/LjOgO/mGQJcB2KTWOU9aBvlANd6Mj3meynnrVnjM+z14vlgn/UCPIeAMg49tXHD0XgLe14WHF8VA1UMOHnGGNmL6AU3iQKXH590IDT24kVhoOi65IEk0zUDuGlBu1HXCrj5BDd9vtRW+W66jegfpimegMIg0QdMgUirCi1vjN+hQPcaKGrOtGwQmIyBoHuB3Cc08dMySEsGBTA1Tpr0OQ/20/WAuSCQ6QLgOFoLCXTMMw8iBpUxF6Tkp8Xlj/rB533UZAhmasfkT6FljzE+NBMjDn4BidJAFQMPEmOLXLHM/aKGU43actSQLrx8BDVQhUAUM5aN1qGJET0GjCwtiWG2UtQKURooCkN6GhiDxfX/RdtY7iZMIgU/FRx0iwzsaCYDjem6uaLNyH0bt5rWtP/VsU2rxmfWbDQrBmAQvAYKTaMlkRl7mMxnTptn9I7xY+gl2bXnHjpmWt/u0XqGDtKaSFcULYic76/1s8N5sZ3vQpsXak1knND3msdaspmUw9gezpFWGCrlLDbMOX5v8zajk5wjLYLHdBnsRTUGkbtQp38rY6Iu+BoQAFpN2TK7Y6ybOMmIjYHKCqI2UJhMxofRLUS3CyJBqnseTgwU47sQYUDwMkCO2i5BzbgL7qM1IxxHyx/vdRkoap8ICMbHgndCzAMCQ3803Qc09z5j2lwj/ggHhpixFwDTZA0UBTJj4ez4Gz6LwKSbge/GMFFAAWpsnNP/bGrNMyS1NFBZgbRA5aNSA5UlRGmgqPRhMl7r0UEqX/UnOo2B+pwu3DEtV8ekznQxUfHcf77PaBPd8bb1e6yCt9q0UhQyUN9obDHa6m154vXw1bEVBzBCYzq4yHQNfVp/P2NyTAuUrjCibXz2B3SFFQPFZAK6k+jit59IJZgKKt1L/DYG/NvWqs1nuo3m06rsRa0MVFYgBqrKiNJA8cBiJmg1ooBivTRacOi7ZSApBorZWxR63PjGzi4zG4t+adsCxRgxjBFjbxARDBSmzGWgaL62kwLoNiJ46JdGiOxAZWp8Y2N9TplBgswkI2CYSUYNheZabwsU03/pv2YAIC1cdHOwj+4+TBkGyg5mFgNVW4iByocYqOCI0kD9SOsFg5vRJcbnsJ8Wm0f3d5hnmRYoDA+xiY5hSPh7QBsXWqDs5CC0j3GDt2ldPNJ3qaCBohWImeLo8emBy2adtqdqw0bL04ufWGiMG91CdD+hsbdr3UWv6f5kpjiVVM7VtkAxruojWlsZ48OahHwv1wltZRYk5/vVRjFQtYYYqCoj6hYojBD9ulx7xkJgeBh/w/8YKJqPN+mHjdd8BqaEh8IaKKYc8z7ez0A72xpFPzufwV/ccD6T1xDhohWJrjnGBXi3Y474Lmb78H473ofuuK7BK6bPn35sPs/W+Pgf80eNi7E7fB+fB/gc77goPtM1PkAMVPQQA5UPMVDBEaWBwpzQio32UC6hEzzD/G+78IhJtI5j0CXbeoSBolLG+2iF53OsDnIMGodmoZ1W7wAVOgwXekMFFJ1iH99pP4vv8eogn4exYuwZ58dYR6tvvJdtDIcgfphAZc+Dz4De72Zijv0NFmKgooUYqCojagM1GajFMIvBDsrzggePGTsIGeKQdIiBih5ioPIhBio4ojRQkwHjw/F0j1lD4sVj7YfNrMJCA8+TBDFQ0UIMVJVRSwOVJYiBih4yiDwfYqCCo1YGKksQAxUtxEBVGdZAUfAw5dJ7cUulGKjCsAaK2XqMs3Jdv6AUA+WGNVCMEbHT6V0UAyUGygWvgfJes3IoBsoNa6CYFdx29rzz2gWhGCg3vAaK3FehGShEg5vGgONakllmDFhm+RbX/mqTQd0U6hQg3gtbDhl0GIdrbEkMMHaAwHDtryZZ0JOpzK7rVipJoVDr60wNkmSX/C7X/lqQc2LZJdc18zLLBgoyTd51/aImMUsaE/JKUaFwHVNLcn4UOuiY93qVQwZ01/IZ5bspY7jWpJBxHVMLkjyVsth1zUohaYZcn18tktaDWdu11mE/OR96ORjf5rpufgY2UHEiLRCINstdIGauY4Tlk4GYtNKwphAD1F3HCMsnCeNINUHeK9f+uDPrBqrWJMkheYLIP7a/wtZYYT7Xn+7SzyfLhRDXY0kcheGRIRhMfmJ2uGt/kphIA2XJ+RHkpJ9HVFzHCIOTQpBWCPKbkG7AdYywMtIFRO2LrL2u/UmgGKh4kJQiJKGlFTyMFvCskwzuLJdDMmFmyrmOEVZG4pTUNSQhde1PGhNtoCxpkWLgKy1SLIfgOkY4OVkNm2yy5DFx7ReGQwpjVilnfTHX/iRQDFS8yFgWcrCR582mMxEGJzmbWH+V8X9y/aIjKXDIg8VaosXGFiWFqTBQlqyZ82DrLrP4JosBu44RXieFHt1Ir5y9RLpCq0Dik+VwyFbs2p8UioGKJ+kSoUWKcaJiBIqTCUBfWr9Z3duwpeKZvcLJScs7LaUPNG9XHdpIuY5JIlNloCwRDwb+kfE6Df2sUZDFnsmSy4BEgtt1jDA8co3JUMwsS9f+JFEMVLxJiwpjpOgqtguxCq+TtVhZ+oVBzDKGrDpkEeI769ar7Vo7XPuTylQaKEuMFIkmad5G9F3HZImIKQtZMoCPtBSuY4Thk0HjLIlDy4Brf9IoBioZZDgDLVKkpag09UcayGr8rHHH5Jgd+rXrGGH4ZEYbS+Sw7I1rf5KZagNlyZIkTPt999J6szab65i0c8nRE2aMGAnumGXnOkYYDZka+51Nram57mKgkkUmhDA4GiOVFk0vhXTPfaWhWX1r41bpqqsyGfd0y7wV+hk6kZpxT15mwkBZUguj2ZYaSBZm7XH/WMLg7YtXm8WHXccIoyVjyxg42dKVnngTA5VMrj99xrRIMeEmCy1S5KP6rq64fHxVg9Z76YGoNjFPX9+4xUxQSqN5gpkyUJZ0ZZHAkAG9jBdwHZN0Mvbr1gUrjYGiC8l1jDB6siI8Gb5d+5JKMVDJJq3wH1653gzqde1POulxuH9zm/ri+s1qr7Q41YxT9x9S39zYotovpHdCQyYNlCXNud9v3qburt+YCiOFUZp/+Lj6r+VrTcp/1zHC6pB78Y4lq9Uj+w469yeZYqDSQVpH37F4tcmll4YWKcba/GjLdjNYebK1HIXRs01rxPtXrFPNKR8yk2kDZUlhx6y992njQeHgOibuZGbJ6+ctV1P2HZIWpxiQ8RasC+bal3RmyUAxfiitBsqS1Qbes7TerAHm2h93Uk79vG2X+uiqDSY1gesYYfVI+fO8x+ar+oSnawlCMVAe0md+/+Zt5kFMQiZupsbTPUSNC/GTdATxIOuBfa2xxXQluPYnndIClU6uO3VGvV9XImmRSkIeKZ4vkl/S4p7GGV5JJEvf3KHvx6xDR1M77slLMVAFSOsB4wRo2XHtrzUxe7Q4MZZLjFN8SNM169yluQtBDFS6yfjJ2xfWqantrEYfP23hnP6+u129b1lyewzSSO7L9zdvM7M9s2CeoBioSWhapJq3jfXlxqRFas3JTtNCxgBQ6aqLF7kfty9alfoZj2KgskHGSFEZiEuLFJN/fr1tLEFyXQa6h5LGeVr3/nv9ZrXnXK9zfxopBioAcdasfM5g81q1SNG3/xZdOHMeYpziR2KEFktyPrn2p4lioLJFuvZokZp+4HBNygSeLdZPY5zWBlnrNJbE3DLjeGNntu6PGKgS6G2RqtasPZrTWeiS3C1yP+JJBP4n2tj+cMt25/60UQxUNol5IacSXTQH9f12HRMm0bs/6woJeeyWHjtpnjPXccLaknFPL3pikUnW7NqfZoqBKoO4bdIffH7dpshapPhcBkeSR4Pvcx0jjAdpumZR0t3aYLv2p40s1C0GKrusP9mp3rywziwLRbJE1zGVEKNENzgtTsuOnXIeI4wH8QgfX91gYiEr4568FANVAWmRwkjRIhVWZnNq959Z06R+qm+GGKf4k7EhH1q53hQqrv1ppLRACSFr7dEixTJZYaywj3EibxrZ0heZpT+k/IkzuT+Mj2O92awuDyYGKgRSiLLW2Zc3NJedh4QWp7vrG9Xn1m1KxBRi4digccalTW8/7NyfVoqBEnpZd/y0um3BSm1+DpVV6aMg5hqTh2+mmf4u5U4SyH3/9JqNatvZeM5UrwbFQIXIved71QPN29QHVqwzhYzrGD95D0sO0JIlK6Yni6ypyNg01740UwyU0MX1p7vUx1ZtMOOWgpQdGCWWmmKA+gJdEMnkmOSQrts3atO8LkMt7y6KgYqALBFzX9NW9ZWGLWpXgRapHT0XzP5PrG7IzNiZtBDh/61+Pv5nU6tzf9opBko4GZcfO2lapP6x94COC3eL1KoTp9UHdUXz4X0HxTgljNzT/5y/Qs09dExrofuYrFAMVIRkbaYfbNluhMI2c1LQfHPjVvX1xhYxTgkl4v/ZtU0maaZrf9opBkoYhOSRIrUHqyTYMTLM1GIA+rzDx6V8SSCpPH5+/Sb1d7PyhfuYLFEMlI/8Zponw+SOnvPqa41b1B3L1poB51u7e5zHlUMRITdd1yoMMsaDQoEHx7W/XCbpPoqBSicpHF2xWSkXHTmh3jh/hRnjRNy09150HlcOszp4eTJGdR/hP/a0q29vajWNA6795TKp91EMVI4UCiyLwtpK9mIkgRReSVi3rxrkISTpHwtDu65VWGSGpGt7pUzK8yYGKl2kUrDg8HH1s7ZdE+IxCWTxdGkJGSPP4GPth9XPWpN3Hx/dn8z7KAYqR5okz16+okavPZkIMm2eGyYG6jpp6Vt5/JS6ODzivGZx45B+0Bbr2rl9+MRAxQ9ZMFCbz5w1KQmGr11zxmncyHPzu+1j8TcloQVvFJyvTTDpdFzXLI6kpeyvu/eb+ygGKuH8hzZQF4aGc7IZf9DSYgsvMVBjxEAxPuny6NXcVYo3rj75pCmc7cOXZAPFyvhpRFYMFCse6DItEeC5sfEnBuo6MVCMy0wKTg0MagPVbu6jGKiEUwxU8ikGqjqUFqh0UQxUOigGqvoUA5VjEAOFvvDwenktRy/423Wc96hCnxVUw8RA5VMMVHUoBipdDGqgguqa/zj+hl4E+axC4FgxUPnEQPFsJgVioFLEIAbqiYNH1HMfm6/+pm/61P0dhn/Rr9+xZLWh7ca4Y9kas7wHAxw5hlwnX23cYt77x537zDH/3HtQPWPqXDPg+Q96GySZ5gtnLDSLdXITJoMYqHwGNVCsW/eepWvMgEvE2AIBJ+0EsyW514DPI0P87YvqzD1mxfHvbm4zA28B40aYYfkefc/frT/zvfr/O5avNe/hMyYrEPhuMVDxhhio62Dtz1fOXqIe0tpl9e9HLTvMNvLe8fZN+rNeMWuJ+nnb7vFj/ran3SQX5riGzi7zWXetblA3z12ufqPjCO377fa9JicexxRrRRED5WaQFqilR0+YNQa5b36dJO3Eu/W+X+t70T8yasYp/XPvAfV+rWcsr4P+MYuc/F5Xrl5Tw5rs5/PQPat/d9atN5/fW6Q8FQOVIgY1UM/TJojAoOCEDGhce7JTPV9vX6sDEFAAE0BcSHvcmcHLJvkYBTBCg4F65rS5anB01LwHjGph4H0sIkxwTQYxUPkMaqBuXbhSPXf6fHXLvOUmE7zFrENH1avnLFXPnj7PJMrcpsWI47jv3ho0ppn1Crv0PeUev10LC6baewyx8Kxp88zaXoUgBir+4NkSAzUGDBSxTuFqdQ3N/EZji3r5zMXqqv7bGiimudtjhnRBS3zwXGGm+BoM1EdXbTD7AduogL5Tf/5PtAZOdipioNwMYqCm6uv1nMfmGW2a13F0/Dqf1uXN06bOMRX4exu2qD59X+dqPST9BDpoj6Nc+oSuHP5uxz51WWvfD1u2m5x4o7n7CLg/L3pikfrUmo1qxLPdDzFQKWLgFigtAiyeyFT2ty1erZ4yZZZJjMlnWODC37mkXtfCdumaWasphG9dsFKt1oW7LWQxUE/XAct2EstB1lVjKjGZeYtBDFQ+SzFQH6nbYO4hi6ECxBvjyrXkfmGgAAUL6z29QteMXzd3malJP7BluykggDFQOg6ouZGZHNLa+Hptzvie7stXzHEuiIGKP6QF6jowUC+duUj9b+tOdX/zNnXj4wvUi3VByRp4l3IVQQzUTbMWG91Dy2iJf+qjs01hur+3b7wgxkA9R2vpbTntgx+uW68eO3DYFMyTQQyUm0ENFCb1l9v2qBfoSj8t6VTi0Tju1zc2tpgVMjBQtEA9ru8HPSrcZ8qqu1Y3ahN8wNwjtA8D9Vpd6SQ3FNr3raatJt8XvS1kpJ8spMRApYiltEANeFqNSAL2Ai0kn9EBeO7KkNlGCxSFMw86GNA1tu9sajMOv6Wrx2xztUCVAjFQ+QxsoHJCQKsgwk2sf29zm1nXblC/1xoopnb/UJslW0sG3NGFWqheogVlz/neCS1Q3O+g4zhAUg3U1m4xUGliKQaKbhxalACHP3HgiHq21rEZue5q2wLFch8WFJQ3zV5snjsKSeBvgSoFYqDcLMVAdegK49e0UaKiTwofhhzQWvSNjWNLkGGgpuw7aIY50DNi0T8yYlqcqCBSrmGgWBOU7jy0z9sKXwxioFLEIAaKwvnOuvyHHuOE8/5aY4vp0sOJ0/fvDSZez9Biw9gbktaRnZexMhxfDsRA5bNUA2UF/18emWVaDTu1oaIp2hqoHn1fEYcbZyw0LVWMnaKm9srZS82i0YiJ10CVIh4gqQZKWqDSxaAG6hdtu81YJ2+ByisqGmTn55lh7U8qkxSOXvCen27doT6nTRgFJa34jPkcKfalDoiBcrMkA6WfVwzTm7QW0rpO/ijuBAbq3oZmY6BolaeX5Q3zV6h7tA6if7Qu3aQNct3xUwW78IJCDFSKGMRAxQlioPKJgaoLYKDKAeJiW5jCghio+EMMVPwgBspNDBTPZhRA97juYYaIGKgUUQxU8hm0BSouEAMVf4iBih/EQLkZpAUqThADlSKKgUo+o2yBigJioOIPMVDxgxgoNzFQjE9MyG0UA5UmJtFAsfAx0+SZiu/6TVljEluglhwdWwuPwZqu3xRHugaRy1IuyWVSDRSznOtPdDp/UxZpuvD0s5kUWAP1YOsuk/bF9ZviTjFQOTL4kYIhbLLoL7MamMHC4HHXMeVwsxb29t4+52/JKonXnSHeRwZWzus4pu5Zu0n994ZmtfzYKb29J++4ytiTuPsoLVDpIlPZ6fpxx2f5pGWcGV7MtvvJ1h1msLnruNLZY2IwS+VTEB7QlRj39SqPTLBh0eaP6/v3q+171JYItG+7rvS6fktSKAaqSkSkKIDJJUQmazE/8SVCxEzKdy2tV2u0ASZVheu4rFIMlLBU0kr+s9ZdJtfdsmNyPePKY/2X1Mrjp9QbF6wwM8u391ww21zHCsVA1YTkD6LQIckcWa1Jyug6Tlg90nLFEjofXLHOLC2BIXAdJxQDJSyfFMas3PDp+o1mWvzK46dN4mDXscLqkOtfp+8D94O0LdwTMU3BKAaqxtynzRMtUmTklcHg1SUiQXLUp0+da5JoMo7HdZxwIsVACcMgBTerM9w8d5n68oZm1S7PX1VJy/rXG7eYPHa0tItpKp1ioGJCWzP7oq4FICYMEncdJ6yMiMZMbZru1jXg725qM33xruOEhSkGShg2qbwwoJgFhanMsOyL6zhhZWSsL8/sXfWNZjWMw1LGV0QxUDElNbPnP7bAjMWRLr7KiDllQDhdpp/UwsEYJ9dxwmDEdIqBEkZFWqbIes7i64uPnpCWkQrJ+Nt/7j1g1i5kUL+U6+FRDFTMyeDLP+/abxbapKCSwefBiOhuON1lZkCy1MBCHegSz+FQWqCE1SDPMC3xrNlGi/ESfR9kvFQwshbhI3sPqg+tWGdmQLZIS3skFAOVINLMzfpRzA6jhUruz0QiuLu14UQwXj5rsZrbcUwdldpr6HQZKMkDJYySPNto3m0LV6pvbmxRO87J7DA/KQ82nek2pukL6zaZGXSu44ThUQxUAolwrNc1s29u3GoWtyWZXJbFhC45krF9pG6DaaKWLs9oKS1QwlqScYxkIP/EqgZdWdqZ+S75xtNd6nNrm9RXG7ao1TIYvKoUA5Vw8rCQV+XmucvNbD4S4mXhAaJfn8Hg71m2xpgnidXqUQyUMC7kuSe/1DuWrDYzaolD13FpIvrOM/i9TW3qjfNXmPyCYppqQzFQKSItL1P2HVL/tXyt+nHLjtRNyyceZx86qj6wYp36kf59LEEhwlF9ioESxo3oAMvR3K8rkejfwiMnUjdeivGw393Uqu5YtlZNaz9sUuC4jhNWj2KgUkpaaDAZH165Xs3pOGr+dh0Xd9JcT44SErwxi47lIMQ01ZZioIRxJvrAmpjv10aKWcxNZ7oTa6aoFE9v79CmaY15zmQGcbwoBirlRExoqfmerpmRZZs0/UkwIDt6Lqi76xvN7JsV+pwlFuNDMVDCpJAKGBXIO3Xl6wdbtqsO/bfruLhxzqGj46Yp6evFpZlioDJEamGs/s+4oe/omhlN3nGqmWGaft622xg9xjNIS1M8KQZKmETSCs94Kbr4Htl3KFaTTTB6jGVlUhDJRFm413WcMF4UA5VRUuDN0rUcBl8yXqpWXXycB5mH37ywzpgmmUEXf7oMlKQxECaFVMy26Rj+QfN2dcu85Wa8VK0qa1u6ekxL08e1aVp3ukvK3IRRDJTQmKf/0zWzj69qMIPQozZTJAOdun9ssDtdiyzk6zpOGE9KC5QwLcQ41bO48ZqN6muNW8x4y6hb5TFNP9qy3aRdoRKbtsHuWaIYKOE4ERPMDOkQbl9UZ1boDrNmxgBwlme4r2mr6devVa1PWBnFQAnTSMo7NO+9y9aYil2Y46UwSb/Sz8ntC+t0IXs8sZN6hBMpBkroJA88ffKsHUeCNhY6LqemRI2OxZE/v26TWVrFdYwwWZQuPGHaSTz/ZvsedWfdevWnXfvVnvO9zuMmI8MR/rHngGlpYnWEvTI8IXUUAyUsSowTi3rSekSQFDNSLKeCYaIVq6WrR1qaUkZpgRJmiQw5IL/U8x6br5YFiIUVx06p5z8+X93X1Cq5mlJOMVDCkjhWM9trZor8RdfMbFM0GdB/uGW7Isnlw3sPpi6Jp/A6xUAJs0qW0PpKQ7P6nK4g1p0YG+JgW+vvWTu2nMp6aWnPDMVAZYAsqMu9DJvUzBh4+Zzp89Qfdu5TB3Uh6jquHMoiwPGlGChhkujSlzDY1NltllJhJjNpB1zHlEtptU8GxUClmLvOXTCtQQ+2Xr/BSSGzAV2/SVh7ioESxp0YEBZZ/6WOTa+uJIVrT51x/i5hvCgGKsUkAznJMq89mSsNYo5RfaK/zRXMYqDiSzFQwriToQWP7j+kRpIifhpbu8+ZdDI8U2KgkkExUCmmGChhFBQDJYw7xUAJq0ExUCmmGChhFBQDJYw7xUAJq0ExUClmUAPFDYd+DF+7Nr796pNPqsHRUeX6KLaP6v2A4wf035aXR68aYxQEYqCSQTFQwrgzqIFCt9Coazn9smA7+sVW9nEMeugF+9C7kdx2/uY4q33oIvsnP4PrEAOVPIqBSjGDGiim375zSf0EgeAtP2rZbtaoA8w4uWnWEh0T/eZvC8TjxscXqMcPHDZ/k97gVbOXmmzmDzRvU/+zqVW9f8U69R/6GFIdTAYxUMmgGChh3BnUQG3QRoWZdDt7LuS2jGHJkRPq3x6drdq0qem+fEXdtqhOPajNjffTBkZG1WfXNZkkmUNaB08NDKo3ab1kXTsWa/++1r+vN7ao185Zpl42c7E6M3g59043xEAlj2KgUsxSDNRbF69SnfoBP6vFAiIa39YicJvPQLEIpz0GIgqYI6+B+tiqhvFaGSCZHEbs5227c1vcEAOVDIqBEsadpRgoFhRmlQSvrqFn/zZlooF6YMt289oew0y/u7TeeQ3UrVrnSDrs/dbZh46qp06dreNo4nY/xEAlj2KgUsxSDBStRtPbD6u5HccMeehZgsBvoFjewB4Dnzh4xGTo9Rqo5+u/37W0Xr1b8z1L15htsw4enWCqXBADlQyKgRLGnaUYqJfMXGRi2KtrtJz/65RZEwzUB1esU3M8xzymNe+ti1apH/taoG7Whgztg3csW6u+sG6TMUfFIAYqeRQDlWLWqgvP3wIVFGKgkkExUMK4s1ZdeK4WqKAQA5U8ioFKMYMaqL/ublc/1TcfA2PBq1mHjprlWUD7hT71rY1bVZevH5/B5Sxf0HC6y/z9ex03xA7bS4UYqGRQDJQw7gxqoPae7zVjlVj5wIut3T3qs7pi2aErjH3Dw0YH53Ucm2CMhnRB+ddd+01rPZXP81eG1A/0Z7Xo95YDr4FaIwYqERQDlWIGNVBxgRioZFAMlDDuDGqg4gRpgUoexUClmGKghFFQDJQw7hQDJawGxUClmGKghFFQDJQw7hQDJawGxUClmBgoxJ/+/WP677iTAeq/3r7HjMlq1gWX6zcJa08xUMK4EwM1RRsoNMWlNXFk3YnTJtULY09J/eL6XcJ4UQyUsGSSC+reDc1SS8ooxUAJs8xP1TeqpcckJoRioIRlUAxUtikGSphlioESWoqBEpZMMVDZphgoYZYpBkpoKQZKWDLFQGWbYqCEWaYYKKGlGChhycRAfVkMVGYpBkqYZYqBElqKgRKWTGmByjbFQAmzTDFQQksxUMKSKQYq2xQDJcwyxUAJLcVACUumGKhsUwyUMMsUAyW0FAMlLJkyBirbFAMlzDLFQAktxUAJS6a0QGWbLDlhDdRvtu81K9pffTI5S2aUAjFQQj/FQAktCxqoR/YdVLMPHVVzhEIf/7n3oHrf8rWmEHXtF6abjx84rKa3d5glgtIOzOHU/R3O6yDMHikT3754tfr5tt3O/cJs8ZF9h9TMg0fM0mP9I6PKViNvyP0vEOTh7OUr6vvN29T+C325LQKBQJANfKWhWbWdPZ/7SyDIhxgoQUGIgRIIBFmFGChBMYiBEhREtzZQ928WAyUQCLIHMVCCYhADJSgIaYESCARZhRgoQTGIgRIUhBgogUCQVYiBEhSDGChBQYiBEggEWYUYKEExiIESFIQYKIFAkFWIgRIUgxgoQUGIgRIIBFmFGChBMYiBEhSEGCiBQJBViIESFIMYKEFBiIESCARZhRgoQTGIgRIUBAZK8kAJBIIsQgyUoBjEQAkKQlqgBFFh9Mkn1fkrQya2dvScNwtXt2lu168hf7N997kL6uSlQbNwp0BQTYiBEhSDGChBQYiBSi9YDHPo6jV1YWhYnRm8bFYcP9TXb+71nvO9hiywe6C3Tx2+2G9MDJnpe4eHzfvsYpql4NLIqGrXn8fn8jmlfAbfeeTiJbVLGyri8po2YKWCd4xcu6b6R0bUOW3e+N38rmP9l/Rn9xuycPKJSwOqU+/jGI4dvVbOrxUkHWKgBMUgBkpQEGKg0oXLo1fVPn0vaeHBPAyMjhpzENQecNyoNiB8DrGBEWrtPqdODQxOajJobcI4ndbHhWFFMGLbdMHG+U8GzBJmqPXsOdOShQHkvWzHgE12LuzjGI7lPRgtWsV4FoakNSwTEAMlKAYxUIKCEAOVbGACLg6PGPMCMT5RgZaaQ30XjUHDnGE8AOdA1xwtTmEDI3isf2C8NYpuPowO59DR168GtcGazCSVC76H38o1pQUviu8Q1B5ioATFIAZKUBBioJIJDMVBXcBjXDBN1S7g+f6eK0OmdWprd4/pIosK60+dUWtPdhozNTASjWGaDMNXr5mWOGhNoyAdEAMlKAYxUIKCwEDJLLzkgAIc48RYobgU5ldzrUNRgbFRtgWqlqCbku5CjFSxrkVBMiAGSlAMYqAEBSEtUMkA9qFd36MDvRfHNghqCsZaMdid1ilBciEGSlAMYqAEBSEGKv5g7BEz5hjoLIgPaBmjNQozJUgmxEAJikEMlKAgxEDFGwxgZoZZHLqwBG6QHoLxWXKPkgcxUIJiEAMlKAgxUPEFSSgpmKVYjj9I39DU2W1aCwXJgRgoQTGIgRIUhAwijycYIM4YG5n1lQyQI4v7terEaTNTUJAMiIESFIMYKEFBSAtUdGCAMS0TXFvGMDEAnIzfzKAjhxE5htjO4HCOY0yNBV13HCPdQskB97D+ZKda7TFRw9oAdw1eNjMnGS/F/SaHFeQ1ZB/PoZjl6kMMlKAYxEAJCkIMVHjA6jC9nUJx57kLZtB3KfaH5I2YJnI78RkkchQDlRyQXHRNzkA1d501ubG8pngycJfp/tvRc8Hce17LnY8eYqAExSAGSlAQYqDCAeOVME1hZa0mt1LQwlcQD2CAMdCV3n9rpliaBhMmRio6iIESFIMYKEFBiIGqDKyZtqPnvFmUViAIG5d1fGGkolgmRyAGSlAcYqAEBYGBkkHk5YF12LhuUa4/JxAwQJ3xU4yxEoQLMVCCYhADJSgIkgCKgSoPDAqXlidBNcAyMqRJYGwVXYWCcCAGSlAMYqAEBSFdeOWB8UkM9hYIqgUqOyuPn1Jbunqk1TMkiIESFIMYKEFBSAtUeaDlianoAkG1wHg7DBRktqYMLq8cYqAExSAGSlAQ0gJVHmgBIEu4QFAtMDPPGqiNnd2S4iIEiIESFIMYKEFByCDy8rE7l69HIKgGaPG0BmrdqTMm1YWgMoiBEhSDGChBQYiBKh/kfpJkl4JqoHdo2CTptAaKweQSd5VDDJSgGMRACQpCuvDKAwUaS7AwFoUlWwSCqIBNIqEmrU7WQB3vHxjbKagIYqAExSAGSlAQDCIXAxUM1PhPXBowiTNHZd0yQQ3AennkhJJ1EsOBGChBMYiBEhSEtEAFAzV+1iiT6eOCOAAjhYliQWpZhLh8iIESFIMYKEFBSAvU5GBVfVqcyDouEMQNJNXE2LMGo6B0iIESFIMYKEFByCDywmD9MbpLZIyTIM6gK4/WKGJVUBrEQAmKQQyUoCDEQLlBoszWs+ckWaEgMegcvKw2nTkrqTVKgBgoQTGIgRIUhBiofPQND5tuOzFPgqTBztaj9VRQHGKgBMUgBkpQEDKIfCLsyveMfRIIkga7RuOqE6fVJYnhohADJSgGMVCCghADNRHnh4bMeBLJ8ixIKk4PDKr6k52mJUpmjU4OMVCCYhADJSgIMVDXgWUizxNjSQSCpIKZeQ2nu0zCTVpTpSpQGGKgBMUgBkpQEGKgroOChqVZyDIuECQZLV09xkA1dXbLoPJJIAZKUAxioAQFQR4oGUQ+BqaDszyLFDiCpGP3uQvGQK0+cVqdkRbVghADJSgGMVCCgpAWqOsYa4Hql6SEgsTjYN/F8XXzjly8JN14BSAGSlAMYqAEBTEwOqqm7Dukvre5Taj5+x17zSBcgSDJIDu5NVB/3LnPGevCNvVdzVPyvAsmgRgogSAgGEDOQHKBIKmgtWnTme5xA0Xrsiw8LBCUBzFQAkFAnL8ypA5flJXuBcnFxeERtf7UmXEDRTxLNAsE5UEMlEAQEOTNYYV7EhIKBEkE4/jqTpw25kkGkQsElUEMlEBQAo72X5JxUIJEghmkGzuvd9+xNp5kJBcIyocYKIGgBNDdsaWrR5ZzESQKxO32nvPj5qnu+GmZXSsQVAgxUAJBiRh98knV2n3OjCcRCJIAFsC25gmylIt0RQsElUEMlEBQBlhYmMSa564M5bYIBPHD6LVrqvXsuQnmicWEJSGsQFA5xEAJBGWC2XiMiSKzs8zME8QNdDM3eVIWwDUnO81sUoFAUDnEQAkEFYLZeQzOZa28EV3jFwhqCbqYiUWvcYKkL5AWU4EgPIiBEghCwNVcoVWva/ibz5yVgkpQddAKytIstDL5zRPJM4dlzJNAECrEQAkEIYIWqF3nLpgcOxRcmCmBIGp4l2fxklYnyfUkEEQDMVACQQRgkPleXahJS5SgGmBQuNc4kabg5KVBGZsnEEQIMVACQQSgQDvYK2OiBNUDeZ0wT2TLF9skEEQPMVACQQQ4e/mKGY8iEFQL5CWzrU+Do5LoVSCIGmKgBIII0DV42aQ4EAiqhQFtmjBPmCiyjgsEgmghBkogiAB9w8NmVh6z8wSCaqBTm/bxMVAnTue2CgSCqCAGSiCIAOTiOdB7UfUODee2CATRgcHi60+fGTdQzAIVCATRQgyUQBARGEC+tbvHJNoUCKICZt2fcZy0BgKBIFqIgRIIIgQdeIcv9psZeaQ2EAjCBMuyNHZ2TTBPG053yexPgaAKEAMlEFQBdOVR0DEzjwVeKwHdNaRJ6L58JbdFkARcuXrVsFIbzfu5/xglr3GCxFjfsCwULBBUA2KgBIIqgVYBFh42BZ0u/Mjbw2DzYgUqLVck5CQxJ2vusZo+n3Gw72LuCEEScOLSgLlvjE/a0tVjWiZZ8DcIMM0YZmbXuZZqgTv0vmFpeRIIqgYxUAJBlWGzlLNunqsgDMqd2owJkoOOvv7xe2fTDfiJOV6r4wIyk851jJeYMeJAuuwEgupDDJRAUCPQ8nRpZNQUrA2O7hgXKTBphWDKOgvE8n5B/MFCvqyLaO/jtrPnTN6mC0PDxkyvO3V9Bl0xYrwZJN47PCxLtQgENYQYKIEghqBYZHbVZMWjneU3JKvsxxqYHLpbva1OdN8WMj/kDqNrD3N1fmjIdPMOXZWZnAJB3CAGSiBIMGiBogVDUiXEF7Qwes3T+lNnzOw5gUCQbIiBEggSDmZ2MQ6GgeaC+ABTu8nTbWd5TJb4EQhSATFQAkFKcGbwshlnI+Oiagu65mh1Yrya3zyxyLRAIEgHxEAJBCkCY2eau86asVGMnak1MBO0jDGIOgrw+bT0FBpPVE0wJo3UBC7jxD0RYysQpAtioASClAErQc4gxt2QM4guo2onQWeMD8uLcA4Yiqi6rTCJzGBjyj+zEkkwWW0wwLtFG9ZCqQmYMVl7eycQCMKGGCiBIKWg0O7SRorkmxTk/H+8f8CMmQoTfA+Gqb23z5kdG5KmgVllYYJWJ29qAC/ZTtZ3DFUU5uXi8Mikuby4DqcGBsU4CQQphhgogSADYGo8+aO8hTytU5ge8hEFBS1ZTK3frc1DoYzYfpIhG9NG7qKwWqJo1fF/D7PbOD/GgrnOjRYxsoGXk3QSI0YWeVf3nJcYt6i6KwUCQbwgBkogyBBoEaElaJc2A5VmQneRz9x29rw6PTDozE9Fyw1dbozROnlpUF0O2BrGZ3VpY8RsQ9d5szSO37jY30rOJcyV/z1eYoz4XFjMJHlJ12Fr9znTZYpJFQgE2YEYKIEg46B1xWbDxjywnEih8TwQ08BxtPJYI8TyNEFh1wQMslRJMXIeJKkMOogck4MRw/RYszTZb/WS61J/otO0MtECFoeB6wKBoHYQAyUQCAoCkzDG3IYQQaZ1Wm5oVQraHQgxenQHMu4qrNPiczB2dDUOjo6abk1m99HyJUZJIBDkQ6n/D8qkB8m6ZB/kAAAAAElFTkSuQmCC;" vertex="1" parent="1">
          <mxGeometry x="100" y="250" width="592" height="431" as="geometry" />
        </mxCell>
        <mxCell id="K9GchK6eYrQeb1Zm0STE-2" value="" style="whiteSpace=wrap;html=1;aspect=fixed;" vertex="1" parent="1">
          <mxGeometry x="100" y="250" width="270" height="270" as="geometry" />
        </mxCell>
        <mxCell id="K9GchK6eYrQeb1Zm0STE-19" style="edgeStyle=orthogonalEdgeStyle;rounded=0;orthogonalLoop=1;jettySize=auto;html=1;exitX=0.5;exitY=1;exitDx=0;exitDy=0;entryX=0.5;entryY=1;entryDx=0;entryDy=0;" edge="1" parent="1" source="K9GchK6eYrQeb1Zm0STE-3" target="K9GchK6eYrQeb1Zm0STE-13">
          <mxGeometry relative="1" as="geometry" />
        </mxCell>
        <mxCell id="K9GchK6eYrQeb1Zm0STE-3" value="" style="whiteSpace=wrap;html=1;aspect=fixed;" vertex="1" parent="1">
          <mxGeometry x="422" y="250" width="270" height="270" as="geometry" />
        </mxCell>
        <mxCell id="K9GchK6eYrQeb1Zm0STE-15" style="edgeStyle=orthogonalEdgeStyle;rounded=0;orthogonalLoop=1;jettySize=auto;html=1;" edge="1" parent="1" source="K9GchK6eYrQeb1Zm0STE-4" target="K9GchK6eYrQeb1Zm0STE-12">
          <mxGeometry relative="1" as="geometry" />
        </mxCell>
        <mxCell id="K9GchK6eYrQeb1Zm0STE-4" value="&lt;font style=&quot;font-size: 10px;&quot;&gt;TL&lt;/font&gt;" style="whiteSpace=wrap;html=1;aspect=fixed;fillColor=#fff2cc;strokeColor=#d6b656;" vertex="1" parent="1">
          <mxGeometry x="215" y="350" width="40" height="40" as="geometry" />
        </mxCell>
        <mxCell id="K9GchK6eYrQeb1Zm0STE-52" style="edgeStyle=orthogonalEdgeStyle;rounded=0;orthogonalLoop=1;jettySize=auto;html=1;entryX=1;entryY=0.5;entryDx=0;entryDy=0;exitX=0.5;exitY=1;exitDx=0;exitDy=0;" edge="1" parent="1" source="K9GchK6eYrQeb1Zm0STE-5" target="K9GchK6eYrQeb1Zm0STE-4">
          <mxGeometry relative="1" as="geometry" />
        </mxCell>
        <mxCell id="K9GchK6eYrQeb1Zm0STE-5" value="&lt;font style=&quot;font-size: 10px;&quot;&gt;Audio Process&lt;/font&gt;" style="whiteSpace=wrap;html=1;aspect=fixed;fillColor=#d5e8d4;strokeColor=#82b366;" vertex="1" parent="1">
          <mxGeometry x="280" y="290" width="40" height="40" as="geometry" />
        </mxCell>
        <mxCell id="K9GchK6eYrQeb1Zm0STE-6" value="Client 1" style="text;html=1;align=center;verticalAlign=middle;whiteSpace=wrap;rounded=0;" vertex="1" parent="1">
          <mxGeometry x="310" y="490" width="60" height="30" as="geometry" />
        </mxCell>
        <mxCell id="K9GchK6eYrQeb1Zm0STE-7" value="Client 2" style="text;html=1;align=center;verticalAlign=middle;whiteSpace=wrap;rounded=0;" vertex="1" parent="1">
          <mxGeometry x="632" y="490" width="60" height="30" as="geometry" />
        </mxCell>
        <mxCell id="K9GchK6eYrQeb1Zm0STE-8" value="&lt;font style=&quot;font-size: 10px;&quot;&gt;Video Process&lt;/font&gt;" style="whiteSpace=wrap;html=1;aspect=fixed;fillColor=#dae8fc;strokeColor=#6c8ebf;" vertex="1" parent="1">
          <mxGeometry x="462" y="280" width="40" height="40" as="geometry" />
        </mxCell>
        <mxCell id="K9GchK6eYrQeb1Zm0STE-9" value="&lt;font style=&quot;font-size: 10px;&quot;&gt;Audio Process&lt;/font&gt;" style="whiteSpace=wrap;html=1;aspect=fixed;fillColor=#d5e8d4;strokeColor=#82b366;" vertex="1" parent="1">
          <mxGeometry x="612" y="280" width="40" height="40" as="geometry" />
        </mxCell>
        <mxCell id="K9GchK6eYrQeb1Zm0STE-14" style="edgeStyle=orthogonalEdgeStyle;rounded=0;orthogonalLoop=1;jettySize=auto;html=1;entryX=0;entryY=0.5;entryDx=0;entryDy=0;exitX=0.5;exitY=1;exitDx=0;exitDy=0;" edge="1" parent="1" source="K9GchK6eYrQeb1Zm0STE-10" target="K9GchK6eYrQeb1Zm0STE-4">
          <mxGeometry relative="1" as="geometry" />
        </mxCell>
        <mxCell id="K9GchK6eYrQeb1Zm0STE-10" value="&lt;font style=&quot;font-size: 10px;&quot;&gt;Video Process&lt;/font&gt;" style="whiteSpace=wrap;html=1;aspect=fixed;fillColor=#dae8fc;strokeColor=#6c8ebf;" vertex="1" parent="1">
          <mxGeometry x="140" y="290" width="40" height="40" as="geometry" />
        </mxCell>
        <mxCell id="K9GchK6eYrQeb1Zm0STE-26" style="edgeStyle=orthogonalEdgeStyle;rounded=0;orthogonalLoop=1;jettySize=auto;html=1;entryX=0.5;entryY=1;entryDx=0;entryDy=0;" edge="1" parent="1" source="K9GchK6eYrQeb1Zm0STE-11" target="K9GchK6eYrQeb1Zm0STE-8">
          <mxGeometry relative="1" as="geometry" />
        </mxCell>
        <mxCell id="K9GchK6eYrQeb1Zm0STE-85" style="edgeStyle=orthogonalEdgeStyle;rounded=0;orthogonalLoop=1;jettySize=auto;html=1;exitX=1;exitY=0.5;exitDx=0;exitDy=0;" edge="1" parent="1" source="K9GchK6eYrQeb1Zm0STE-11" target="K9GchK6eYrQeb1Zm0STE-9">
          <mxGeometry relative="1" as="geometry" />
        </mxCell>
        <mxCell id="K9GchK6eYrQeb1Zm0STE-11" value="&lt;font style=&quot;font-size: 10px;&quot;&gt;TL&lt;/font&gt;" style="whiteSpace=wrap;html=1;aspect=fixed;fillColor=#fff2cc;strokeColor=#d6b656;" vertex="1" parent="1">
          <mxGeometry x="537" y="350" width="40" height="40" as="geometry" />
        </mxCell>
        <mxCell id="K9GchK6eYrQeb1Zm0STE-12" value="&lt;font style=&quot;font-size: 10px;&quot;&gt;NL&lt;/font&gt;" style="whiteSpace=wrap;html=1;aspect=fixed;" vertex="1" parent="1">
          <mxGeometry x="215" y="430" width="40" height="40" as="geometry" />
        </mxCell>
        <mxCell id="K9GchK6eYrQeb1Zm0STE-25" style="edgeStyle=orthogonalEdgeStyle;rounded=0;orthogonalLoop=1;jettySize=auto;html=1;" edge="1" parent="1" source="K9GchK6eYrQeb1Zm0STE-13" target="K9GchK6eYrQeb1Zm0STE-11">
          <mxGeometry relative="1" as="geometry" />
        </mxCell>
        <mxCell id="K9GchK6eYrQeb1Zm0STE-13" value="&lt;font style=&quot;font-size: 10px;&quot;&gt;NL&lt;/font&gt;" style="whiteSpace=wrap;html=1;aspect=fixed;" vertex="1" parent="1">
          <mxGeometry x="537" y="430" width="40" height="40" as="geometry" />
        </mxCell>
        <mxCell id="K9GchK6eYrQeb1Zm0STE-22" value="" style="endArrow=classic;html=1;rounded=0;entryX=0.5;entryY=1;entryDx=0;entryDy=0;exitX=0.5;exitY=1;exitDx=0;exitDy=0;" edge="1" parent="1" source="K9GchK6eYrQeb1Zm0STE-3" target="K9GchK6eYrQeb1Zm0STE-13">
          <mxGeometry width="50" height="50" relative="1" as="geometry">
            <mxPoint x="550" y="520" as="sourcePoint" />
            <mxPoint x="600" y="470" as="targetPoint" />
          </mxGeometry>
        </mxCell>
        <mxCell id="K9GchK6eYrQeb1Zm0STE-24" value="" style="endArrow=classic;html=1;rounded=0;exitX=0.5;exitY=1;exitDx=0;exitDy=0;" edge="1" parent="1" source="K9GchK6eYrQeb1Zm0STE-12" target="K9GchK6eYrQeb1Zm0STE-2">
          <mxGeometry width="50" height="50" relative="1" as="geometry">
            <mxPoint x="180" y="580" as="sourcePoint" />
            <mxPoint x="230" y="530" as="targetPoint" />
          </mxGeometry>
        </mxCell>
        <mxCell id="K9GchK6eYrQeb1Zm0STE-27" value="VD" style="rounded=1;whiteSpace=wrap;html=1;fillColor=#dae8fc;strokeColor=#6c8ebf;" vertex="1" parent="1">
          <mxGeometry x="90" y="340" width="40" height="20" as="geometry" />
        </mxCell>
        <mxCell id="K9GchK6eYrQeb1Zm0STE-28" value="VH" style="rounded=1;whiteSpace=wrap;html=1;fillColor=#dae8fc;strokeColor=#6c8ebf;" vertex="1" parent="1">
          <mxGeometry x="50" y="340" width="40" height="20" as="geometry" />
        </mxCell>
        <mxCell id="K9GchK6eYrQeb1Zm0STE-30" value="VD" style="rounded=1;whiteSpace=wrap;html=1;fillColor=#dae8fc;strokeColor=#6c8ebf;" vertex="1" parent="1">
          <mxGeometry x="150" y="400" width="40" height="20" as="geometry" />
        </mxCell>
        <mxCell id="K9GchK6eYrQeb1Zm0STE-31" value="VH" style="rounded=1;whiteSpace=wrap;html=1;fillColor=#dae8fc;strokeColor=#6c8ebf;" vertex="1" parent="1">
          <mxGeometry x="110" y="400" width="40" height="20" as="geometry" />
        </mxCell>
        <mxCell id="K9GchK6eYrQeb1Zm0STE-32" value="TH" style="rounded=1;whiteSpace=wrap;html=1;fillColor=#fff2cc;strokeColor=#d6b656;" vertex="1" parent="1">
          <mxGeometry x="70" y="400" width="40" height="20" as="geometry" />
        </mxCell>
        <mxCell id="K9GchK6eYrQeb1Zm0STE-33" value="VD" style="rounded=1;whiteSpace=wrap;html=1;fillColor=#dae8fc;strokeColor=#6c8ebf;" vertex="1" parent="1">
          <mxGeometry x="70" y="500" width="40" height="20" as="geometry" />
        </mxCell>
        <mxCell id="K9GchK6eYrQeb1Zm0STE-34" value="VH" style="rounded=1;whiteSpace=wrap;html=1;fillColor=#dae8fc;strokeColor=#6c8ebf;" vertex="1" parent="1">
          <mxGeometry x="30" y="500" width="40" height="20" as="geometry" />
        </mxCell>
        <mxCell id="K9GchK6eYrQeb1Zm0STE-35" value="TH" style="rounded=1;whiteSpace=wrap;html=1;fillColor=#fff2cc;strokeColor=#d6b656;" vertex="1" parent="1">
          <mxGeometry x="-10" y="500" width="40" height="20" as="geometry" />
        </mxCell>
        <mxCell id="K9GchK6eYrQeb1Zm0STE-37" value="NH" style="rounded=1;whiteSpace=wrap;html=1;" vertex="1" parent="1">
          <mxGeometry x="-50" y="500" width="40" height="20" as="geometry" />
        </mxCell>
        <mxCell id="K9GchK6eYrQeb1Zm0STE-49" value="VD" style="rounded=1;whiteSpace=wrap;html=1;fillColor=#dae8fc;strokeColor=#6c8ebf;" vertex="1" parent="1">
          <mxGeometry x="415" y="290" width="40" height="20" as="geometry" />
        </mxCell>
        <mxCell id="K9GchK6eYrQeb1Zm0STE-50" value="VH" style="rounded=1;whiteSpace=wrap;html=1;fillColor=#dae8fc;strokeColor=#6c8ebf;" vertex="1" parent="1">
          <mxGeometry x="375" y="290" width="40" height="20" as="geometry" />
        </mxCell>
        <mxCell id="K9GchK6eYrQeb1Zm0STE-54" value="AD" style="rounded=1;whiteSpace=wrap;html=1;fillColor=#d5e8d4;strokeColor=#82b366;" vertex="1" parent="1">
          <mxGeometry x="360" y="350" width="40" height="20" as="geometry" />
        </mxCell>
        <mxCell id="K9GchK6eYrQeb1Zm0STE-55" value="AH" style="rounded=1;whiteSpace=wrap;html=1;fillColor=#d5e8d4;strokeColor=#82b366;" vertex="1" parent="1">
          <mxGeometry x="320" y="350" width="40" height="20" as="geometry" />
        </mxCell>
        <mxCell id="K9GchK6eYrQeb1Zm0STE-57" value="TH" style="rounded=1;whiteSpace=wrap;html=1;fillColor=#fff2cc;strokeColor=#d6b656;" vertex="1" parent="1">
          <mxGeometry x="290" y="400" width="40" height="20" as="geometry" />
        </mxCell>
        <mxCell id="K9GchK6eYrQeb1Zm0STE-58" value="AD" style="rounded=1;whiteSpace=wrap;html=1;fillColor=#d5e8d4;strokeColor=#82b366;" vertex="1" parent="1">
          <mxGeometry x="370" y="400" width="40" height="20" as="geometry" />
        </mxCell>
        <mxCell id="K9GchK6eYrQeb1Zm0STE-59" value="AH" style="rounded=1;whiteSpace=wrap;html=1;fillColor=#d5e8d4;strokeColor=#82b366;" vertex="1" parent="1">
          <mxGeometry x="330" y="400" width="40" height="20" as="geometry" />
        </mxCell>
        <mxCell id="K9GchK6eYrQeb1Zm0STE-60" value="TH" style="rounded=1;whiteSpace=wrap;html=1;fillColor=#fff2cc;strokeColor=#d6b656;" vertex="1" parent="1">
          <mxGeometry x="110" y="500" width="40" height="20" as="geometry" />
        </mxCell>
        <mxCell id="K9GchK6eYrQeb1Zm0STE-61" value="AD" style="rounded=1;whiteSpace=wrap;html=1;fillColor=#d5e8d4;strokeColor=#82b366;" vertex="1" parent="1">
          <mxGeometry x="190" y="500" width="40" height="20" as="geometry" />
        </mxCell>
        <mxCell id="K9GchK6eYrQeb1Zm0STE-62" value="AH" style="rounded=1;whiteSpace=wrap;html=1;fillColor=#d5e8d4;strokeColor=#82b366;" vertex="1" parent="1">
          <mxGeometry x="150" y="500" width="40" height="20" as="geometry" />
        </mxCell>
        <mxCell id="K9GchK6eYrQeb1Zm0STE-64" value="VD" style="rounded=1;whiteSpace=wrap;html=1;fillColor=#dae8fc;strokeColor=#6c8ebf;" vertex="1" parent="1">
          <mxGeometry x="370" y="600" width="40" height="20" as="geometry" />
        </mxCell>
        <mxCell id="K9GchK6eYrQeb1Zm0STE-65" value="VH" style="rounded=1;whiteSpace=wrap;html=1;fillColor=#dae8fc;strokeColor=#6c8ebf;" vertex="1" parent="1">
          <mxGeometry x="330" y="600" width="40" height="20" as="geometry" />
        </mxCell>
        <mxCell id="K9GchK6eYrQeb1Zm0STE-66" value="TH" style="rounded=1;whiteSpace=wrap;html=1;fillColor=#fff2cc;strokeColor=#d6b656;" vertex="1" parent="1">
          <mxGeometry x="290" y="600" width="40" height="20" as="geometry" />
        </mxCell>
        <mxCell id="K9GchK6eYrQeb1Zm0STE-67" value="NH" style="rounded=1;whiteSpace=wrap;html=1;" vertex="1" parent="1">
          <mxGeometry x="250" y="600" width="40" height="20" as="geometry" />
        </mxCell>
        <mxCell id="K9GchK6eYrQeb1Zm0STE-68" value="TH" style="rounded=1;whiteSpace=wrap;html=1;fillColor=#fff2cc;strokeColor=#d6b656;" vertex="1" parent="1">
          <mxGeometry x="410" y="600" width="40" height="20" as="geometry" />
        </mxCell>
        <mxCell id="K9GchK6eYrQeb1Zm0STE-69" value="AD" style="rounded=1;whiteSpace=wrap;html=1;fillColor=#d5e8d4;strokeColor=#82b366;" vertex="1" parent="1">
          <mxGeometry x="490" y="600" width="40" height="20" as="geometry" />
        </mxCell>
        <mxCell id="K9GchK6eYrQeb1Zm0STE-70" value="AH" style="rounded=1;whiteSpace=wrap;html=1;fillColor=#d5e8d4;strokeColor=#82b366;" vertex="1" parent="1">
          <mxGeometry x="450" y="600" width="40" height="20" as="geometry" />
        </mxCell>
        <mxCell id="K9GchK6eYrQeb1Zm0STE-71" value="VD" style="rounded=1;whiteSpace=wrap;html=1;fillColor=#dae8fc;strokeColor=#6c8ebf;" vertex="1" parent="1">
          <mxGeometry x="732" y="470" width="40" height="20" as="geometry" />
        </mxCell>
        <mxCell id="K9GchK6eYrQeb1Zm0STE-72" value="VH" style="rounded=1;whiteSpace=wrap;html=1;fillColor=#dae8fc;strokeColor=#6c8ebf;" vertex="1" parent="1">
          <mxGeometry x="692" y="470" width="40" height="20" as="geometry" />
        </mxCell>
        <mxCell id="K9GchK6eYrQeb1Zm0STE-73" value="TH" style="rounded=1;whiteSpace=wrap;html=1;fillColor=#fff2cc;strokeColor=#d6b656;" vertex="1" parent="1">
          <mxGeometry x="652" y="470" width="40" height="20" as="geometry" />
        </mxCell>
        <mxCell id="K9GchK6eYrQeb1Zm0STE-74" value="NH" style="rounded=1;whiteSpace=wrap;html=1;" vertex="1" parent="1">
          <mxGeometry x="612" y="470" width="40" height="20" as="geometry" />
        </mxCell>
        <mxCell id="K9GchK6eYrQeb1Zm0STE-75" value="TH" style="rounded=1;whiteSpace=wrap;html=1;fillColor=#fff2cc;strokeColor=#d6b656;" vertex="1" parent="1">
          <mxGeometry x="772" y="470" width="40" height="20" as="geometry" />
        </mxCell>
        <mxCell id="K9GchK6eYrQeb1Zm0STE-76" value="AD" style="rounded=1;whiteSpace=wrap;html=1;fillColor=#d5e8d4;strokeColor=#82b366;" vertex="1" parent="1">
          <mxGeometry x="852" y="470" width="40" height="20" as="geometry" />
        </mxCell>
        <mxCell id="K9GchK6eYrQeb1Zm0STE-77" value="AH" style="rounded=1;whiteSpace=wrap;html=1;fillColor=#d5e8d4;strokeColor=#82b366;" vertex="1" parent="1">
          <mxGeometry x="812" y="470" width="40" height="20" as="geometry" />
        </mxCell>
        <mxCell id="K9GchK6eYrQeb1Zm0STE-78" value="VD" style="rounded=1;whiteSpace=wrap;html=1;fillColor=#dae8fc;strokeColor=#6c8ebf;" vertex="1" parent="1">
          <mxGeometry x="740" y="410" width="40" height="20" as="geometry" />
        </mxCell>
        <mxCell id="K9GchK6eYrQeb1Zm0STE-79" value="VH" style="rounded=1;whiteSpace=wrap;html=1;fillColor=#dae8fc;strokeColor=#6c8ebf;" vertex="1" parent="1">
          <mxGeometry x="700" y="410" width="40" height="20" as="geometry" />
        </mxCell>
        <mxCell id="K9GchK6eYrQeb1Zm0STE-80" value="TH" style="rounded=1;whiteSpace=wrap;html=1;fillColor=#fff2cc;strokeColor=#d6b656;" vertex="1" parent="1">
          <mxGeometry x="660" y="410" width="40" height="20" as="geometry" />
        </mxCell>
        <mxCell id="K9GchK6eYrQeb1Zm0STE-82" value="TH" style="rounded=1;whiteSpace=wrap;html=1;fillColor=#fff2cc;strokeColor=#d6b656;" vertex="1" parent="1">
          <mxGeometry x="820" y="410" width="40" height="20" as="geometry" />
        </mxCell>
        <mxCell id="K9GchK6eYrQeb1Zm0STE-83" value="AD" style="rounded=1;whiteSpace=wrap;html=1;fillColor=#d5e8d4;strokeColor=#82b366;" vertex="1" parent="1">
          <mxGeometry x="900" y="410" width="40" height="20" as="geometry" />
        </mxCell>
        <mxCell id="K9GchK6eYrQeb1Zm0STE-84" value="AH" style="rounded=1;whiteSpace=wrap;html=1;fillColor=#d5e8d4;strokeColor=#82b366;" vertex="1" parent="1">
          <mxGeometry x="860" y="410" width="40" height="20" as="geometry" />
        </mxCell>
        <mxCell id="K9GchK6eYrQeb1Zm0STE-86" value="AD" style="rounded=1;whiteSpace=wrap;html=1;fillColor=#d5e8d4;strokeColor=#82b366;" vertex="1" parent="1">
          <mxGeometry x="712" y="290" width="40" height="20" as="geometry" />
        </mxCell>
        <mxCell id="K9GchK6eYrQeb1Zm0STE-87" value="AH" style="rounded=1;whiteSpace=wrap;html=1;fillColor=#d5e8d4;strokeColor=#82b366;" vertex="1" parent="1">
          <mxGeometry x="672" y="290" width="40" height="20" as="geometry" />
        </mxCell>
      </root>
    </mxGraphModel>
  </diagram>
</mxfile>
